<svg width="71" height="71" viewBox="0 0 71 71" fill="none" xmlns="http://www.w3.org/2000/svg">
<circle cx="35.5" cy="35.5" r="34.5" stroke="#36443A" stroke-width="2"/>
<path d="M30.1606 49.2951C30.1606 49.5992 30.0427 49.8909 29.8329 50.1059C29.6231 50.321 29.3386 50.4418 29.0419 50.4418H20.0922C19.373 50.44 18.6668 50.2445 18.0446 49.8747C17.4224 49.505 16.906 48.974 16.5471 48.3351C16.1882 47.6963 15.9996 46.9719 16 46.2347C16.0004 45.4975 16.19 44.7733 16.5496 44.1349L23.3942 32.0104L19.8964 32.966C19.6096 33.0445 19.3041 33.0031 19.0471 32.8508C18.7901 32.6984 18.6026 32.4477 18.526 32.1537C18.4493 31.8597 18.4897 31.5466 18.6384 31.2831C18.787 31.0197 19.0316 30.8276 19.3184 30.749L25.4284 29.0729C25.571 29.0331 25.7197 29.0226 25.8662 29.042C26.0127 29.0614 26.154 29.1104 26.2819 29.1861C26.4099 29.2618 26.5219 29.3627 26.6116 29.483C26.7013 29.6033 26.7668 29.7407 26.8045 29.8871L28.4452 36.1481C28.4833 36.2935 28.4931 36.4452 28.474 36.5945C28.4548 36.7438 28.4072 36.8878 28.3338 37.0183C28.2604 37.1487 28.1626 37.263 28.0461 37.3548C27.9296 37.4465 27.7966 37.5138 27.6547 37.5528C27.5598 37.579 27.4621 37.5925 27.3638 37.5929C27.1177 37.5927 26.8785 37.5092 26.6833 37.3554C26.4881 37.2017 26.3478 36.9862 26.2843 36.7425L25.352 33.1494L18.4849 45.2816C18.3216 45.5716 18.2355 45.9004 18.2351 46.2353C18.2348 46.5701 18.3203 46.8991 18.4831 47.1895C18.6458 47.4798 18.8801 47.7211 19.1625 47.8894C19.4449 48.0577 19.7655 48.147 20.0922 48.1484H29.0419C29.3386 48.1484 29.6231 48.2692 29.8329 48.4842C30.0427 48.6993 30.1606 48.9909 30.1606 49.2951ZM56.4504 44.1349L52.1359 36.4902C51.9811 36.2406 51.7382 36.0619 51.458 35.9916C51.1777 35.9212 50.8818 35.9646 50.632 36.1126C50.3822 36.2606 50.1978 36.5018 50.1174 36.7859C50.037 37.0699 50.0668 37.3748 50.2005 37.6369L54.5151 45.2816C54.6784 45.5716 54.7645 45.9004 54.7649 46.2353C54.7652 46.5701 54.6797 46.8991 54.5169 47.1895C54.3542 47.4798 54.1199 47.7211 53.8375 47.8894C53.5551 48.0577 53.2345 48.147 52.9078 48.1484H39.1998L41.7654 45.5186C41.963 45.3012 42.0706 45.0137 42.0655 44.7166C42.0604 44.4195 41.943 44.1361 41.738 43.926C41.533 43.7159 41.2565 43.5956 40.9667 43.5903C40.6769 43.5851 40.3964 43.6954 40.1843 43.8979L35.7094 48.4847C35.4999 48.6997 35.3823 48.9912 35.3823 49.2951C35.3823 49.599 35.4999 49.8904 35.7094 50.1054L40.1843 54.6922C40.3964 54.8948 40.6769 55.0051 40.9667 54.9998C41.2565 54.9946 41.533 54.8742 41.738 54.6641C41.943 54.454 42.0604 54.1706 42.0655 53.8735C42.0706 53.5765 41.963 53.2889 41.7654 53.0716L39.1998 50.4418H52.9078C53.627 50.44 54.3332 50.2445 54.9554 49.8747C55.5776 49.505 56.094 48.974 56.4529 48.3351C56.8118 47.6963 57.0004 46.9719 57 46.2347C56.9996 45.4975 56.81 44.7733 56.4504 44.1349ZM38.1128 16.2317L44.9594 28.3562L41.4615 27.4006C41.1835 27.3448 40.8953 27.3992 40.6549 27.5528C40.4145 27.7064 40.2399 27.9477 40.1663 28.2281C40.0927 28.5084 40.1256 28.807 40.2584 29.0635C40.3911 29.3199 40.6139 29.5152 40.8816 29.6099L46.9936 31.2899C47.2801 31.368 47.5852 31.3264 47.8419 31.1741C48.0985 31.0218 48.2856 30.7713 48.3621 30.4776L50.001 24.2128C50.0459 24.0653 50.0613 23.9101 50.0462 23.7564C50.0311 23.6027 49.9859 23.4538 49.9133 23.3184C49.8406 23.1831 49.7421 23.0642 49.6235 22.9689C49.5049 22.8736 49.3688 22.8038 49.2233 22.7637C49.0777 22.7237 48.9258 22.7141 48.7766 22.7358C48.6274 22.7574 48.484 22.8096 48.355 22.8895C48.226 22.9693 48.114 23.075 48.0259 23.2003C47.9377 23.3255 47.8751 23.4677 47.8419 23.6184L46.9003 27.2152L40.0426 15.085C39.6813 14.4505 39.1641 13.9241 38.5425 13.5583C37.921 13.1925 37.2167 13 36.5 13C35.7833 13 35.079 13.1925 34.4575 13.5583C33.8359 13.9241 33.3187 14.4505 32.9574 15.085L28.6317 22.7297C28.4897 22.9926 28.4542 23.3022 28.5326 23.5917C28.611 23.8813 28.7972 24.1277 29.0511 24.278C29.3049 24.4282 29.6062 24.4704 29.8901 24.3953C30.174 24.3202 30.4177 24.1339 30.5689 23.8764L34.8872 16.2317C35.0511 15.9421 35.2863 15.7017 35.5694 15.5346C35.8524 15.3675 36.1734 15.2795 36.5 15.2795C36.8266 15.2795 37.1476 15.3675 37.4306 15.5346C37.7137 15.7017 37.9489 15.9421 38.1128 16.2317Z" fill="#36443A"/>
</svg>
