<svg width="18" height="18" viewBox="0 0 18 18" fill="none" xmlns="http://www.w3.org/2000/svg">
<path d="M12.6894 1H5.31061C2.9297 1 1 2.93004 1 5.31061V12.6894C1 15.0703 2.93004 17 5.31095 17H12.689C15.07 17 17 15.07 17 12.689V5.31061C17 2.9297 15.0703 1 12.6894 1Z" stroke="#36443A" stroke-miterlimit="10"/>
<path d="M8.99999 12.8622C11.133 12.8622 12.8621 11.1331 12.8621 9.00008C12.8621 6.86708 11.133 5.13794 8.99999 5.13794C6.86699 5.13794 5.13785 6.86708 5.13785 9.00008C5.13785 11.1331 6.86699 12.8622 8.99999 12.8622Z" stroke="#36443A" stroke-miterlimit="10"/>
<path d="M13.6896 5.13792C14.1466 5.13792 14.5171 4.76743 14.5171 4.31041C14.5171 3.8534 14.1466 3.48291 13.6896 3.48291C13.2326 3.48291 12.8621 3.8534 12.8621 4.31041C12.8621 4.76743 13.2326 5.13792 13.6896 5.13792Z" fill="#36443A"/>
</svg>
