<svg width="22" height="22" viewBox="0 0 22 22" fill="none" xmlns="http://www.w3.org/2000/svg">
<path d="M21.24 6.07684C19.7694 6.07521 18.3596 5.51279 17.3198 4.51295C16.2799 3.5131 15.695 2.1575 15.6933 0.743508C15.6933 0.634702 15.6484 0.530351 15.5684 0.453413C15.4883 0.376475 15.3798 0.333252 15.2667 0.333252H11C10.8868 0.333252 10.7783 0.376475 10.6983 0.453413C10.6183 0.530351 10.5733 0.634702 10.5733 0.743508V14.282C10.5733 14.7225 10.4503 15.1549 10.2171 15.5342C9.98402 15.9134 9.64933 16.2255 9.24798 16.438C8.84664 16.6505 8.39336 16.7555 7.93542 16.7421C7.47749 16.7286 7.03168 16.5973 6.64453 16.3618C6.25737 16.1262 5.94305 15.7951 5.73435 15.4029C5.52566 15.0108 5.43024 14.5719 5.45805 14.1322C5.48586 13.6925 5.63589 13.268 5.89248 12.9031C6.14906 12.5381 6.5028 12.246 6.9168 12.0574C6.98973 12.024 7.0513 11.9713 7.09436 11.9056C7.13741 11.8399 7.16017 11.7637 7.16 11.6861V7.30761C7.16002 7.24764 7.14638 7.1884 7.12002 7.13405C7.09366 7.07969 7.05523 7.03156 7.00743 6.99303C6.95963 6.95451 6.90364 6.92653 6.84338 6.91106C6.78312 6.89559 6.72007 6.89301 6.65866 6.90351C3.05226 7.52094 0.333328 10.6922 0.333328 14.282C0.333328 16.2405 1.14247 18.1188 2.58275 19.5037C4.02303 20.8886 5.97647 21.6666 8.01333 21.6666C10.0502 21.6666 12.0036 20.8886 13.4439 19.5037C14.8842 18.1188 15.6933 16.2405 15.6933 14.282V9.50659C17.3632 10.4877 19.2831 11.0046 21.24 10.9999C21.3532 10.9999 21.4617 10.9567 21.5417 10.8798C21.6217 10.8028 21.6667 10.6985 21.6667 10.5897V6.4871C21.6667 6.37829 21.6217 6.27394 21.5417 6.197C21.4617 6.12006 21.3532 6.07684 21.24 6.07684ZM20.8133 10.1712C18.9062 10.0956 17.0643 9.48284 15.5163 8.40915C15.4524 8.36488 15.3771 8.33844 15.2986 8.33277C15.2201 8.32711 15.1415 8.34242 15.0716 8.37703C15.0016 8.41164 14.9429 8.46419 14.902 8.52886C14.8611 8.59354 14.8397 8.66783 14.84 8.74351V14.282C14.84 16.0229 14.1208 17.6925 12.8405 18.9235C11.5603 20.1545 9.82387 20.8461 8.01333 20.8461C6.20278 20.8461 4.46639 20.1545 3.18615 18.9235C1.9059 17.6925 1.18666 16.0229 1.18666 14.282C1.18666 11.2543 3.35413 8.55992 6.30666 7.82043V11.442C5.78768 11.7301 5.35673 12.1445 5.05714 12.6435C4.75756 13.1426 4.59989 13.7087 4.6 14.2849C4.6001 14.8611 4.75798 15.4272 5.05775 15.9261C5.35753 16.425 5.78863 16.8393 6.30772 17.1272C6.8268 17.4152 7.41558 17.5666 8.01485 17.5664C8.61412 17.5661 9.20275 17.4141 9.72158 17.1258C10.2404 16.8374 10.6711 16.4228 10.9704 15.9236C11.2697 15.4244 11.4271 14.8582 11.4267 14.282V1.15376H14.8539C14.9595 2.64004 15.6213 4.03925 16.7169 5.09266C17.8124 6.14606 19.2676 6.78241 20.8133 6.88402V10.1712Z" fill="#36443A"/>
</svg>
