<svg width="20" height="16" viewBox="0 0 20 16" fill="none" xmlns="http://www.w3.org/2000/svg">
<path d="M19.6295 0.729614C19.6294 0.649927 19.6083 0.571663 19.5683 0.502773C19.5282 0.433884 19.4707 0.376822 19.4014 0.337385C19.3322 0.297948 19.2537 0.277541 19.174 0.278237C19.0944 0.278933 19.0163 0.300707 18.9477 0.341347C18.3123 0.719762 17.6221 0.997545 16.9017 1.16483C16.1143 0.41315 15.0664 -0.00432453 13.9779 3.37841e-05C13.3867 0.000873368 12.8021 0.124428 12.2611 0.362878C11.7201 0.601328 11.2345 0.949482 10.835 1.38531C10.4355 1.82113 10.1308 2.33514 9.9402 2.8948C9.74961 3.45447 9.67727 4.0476 9.72776 4.63666C6.99827 4.34658 4.49386 2.99004 2.75973 0.862347C2.71344 0.805821 2.65413 0.761372 2.58689 0.732816C2.51964 0.70426 2.44647 0.69245 2.37366 0.6984C2.30084 0.704349 2.23056 0.727881 2.16884 0.766974C2.10712 0.806067 2.05581 0.859555 2.01931 0.922844C1.6447 1.57612 1.44765 2.31608 1.44775 3.06914C1.44665 3.89564 1.68568 4.70466 2.13579 5.39784L2.08162 5.36804C2.01087 5.33332 1.93232 5.31755 1.85366 5.3223C1.77499 5.32705 1.69891 5.35215 1.63285 5.39513C1.56403 5.43988 1.50754 5.5012 1.46858 5.57345C1.42961 5.64571 1.40941 5.72659 1.40983 5.80868C1.40621 5.91523 1.41254 6.02268 1.42969 6.12742C1.47237 6.72357 1.64069 7.30394 1.92361 7.8304C2.20653 8.35687 2.59764 8.81752 3.07125 9.18208C3.01352 9.19908 2.95978 9.22744 2.91317 9.26551C2.86657 9.30357 2.82804 9.35057 2.79986 9.40373C2.77168 9.4569 2.75441 9.51516 2.74907 9.5751C2.74373 9.63504 2.75042 9.69543 2.76876 9.75275C2.97734 10.4031 3.3397 10.9936 3.82509 11.4741C4.31048 11.9547 4.9046 12.311 5.55705 12.5131C4.22475 13.2589 2.69031 13.5634 1.17416 13.3826C1.07256 13.3699 0.969659 13.3921 0.882342 13.4456C0.795025 13.499 0.728478 13.5806 0.693622 13.6769C0.658766 13.7732 0.657671 13.8784 0.690516 13.9754C0.723361 14.0724 0.788195 14.1553 0.87438 14.2106C2.6888 15.3789 4.80131 15.9999 6.95933 15.9993C9.40737 16.0264 11.7957 15.2437 13.753 13.7731C15.7102 12.3024 17.1267 10.2262 17.782 7.8674C18.0881 6.84075 18.2443 5.77437 18.2461 4.70257C18.2461 4.59422 18.2461 4.48135 18.2434 4.36668C18.7131 3.88917 19.0787 3.31956 19.3172 2.69374C19.5558 2.06792 19.6621 1.39856 19.6295 0.729614ZM17.4407 3.91972C17.3666 4.00742 17.3288 4.12017 17.3351 4.23485C17.3844 5.37629 17.2428 6.51796 16.9161 7.61277C16.3333 9.79448 15.0355 11.7176 13.2304 13.0744C11.4252 14.4312 9.21705 15.1432 6.95933 15.0964C5.58146 15.0964 4.21747 14.821 2.94754 14.2864C4.44003 14.1208 5.85587 13.5389 7.03337 12.607C7.10663 12.5494 7.16027 12.4705 7.18694 12.3812C7.21361 12.2919 7.21199 12.1966 7.18232 12.1083C7.15264 12.0199 7.09636 11.9429 7.02119 11.8879C6.94603 11.8328 6.85566 11.8023 6.76249 11.8006C6.18456 11.7912 5.6189 11.6324 5.1205 11.3397C4.6221 11.047 4.20791 10.6303 3.91821 10.1302C4.30196 10.1311 4.683 10.0787 5.0505 9.97307C5.14736 9.94468 5.23191 9.88466 5.29066 9.80258C5.3494 9.72051 5.37895 9.62112 5.37459 9.52028C5.37022 9.41945 5.33219 9.32298 5.26657 9.24629C5.20095 9.1696 5.11153 9.11711 5.01258 9.09721C4.36624 8.96787 3.7725 8.65053 3.30585 8.185C2.83919 7.71947 2.52042 7.1265 2.38952 6.48047C2.77299 6.60482 3.17215 6.67414 3.57509 6.68634C3.67436 6.69369 3.77309 6.66614 3.8542 6.60843C3.93531 6.55073 3.99372 6.46651 4.01934 6.37031C4.04883 6.27694 4.04717 6.1765 4.01459 6.08415C3.98202 5.9918 3.9203 5.91255 3.83875 5.85834C3.37937 5.55256 3.00299 5.13764 2.7433 4.65072C2.48361 4.1638 2.34871 3.62008 2.3507 3.06824C2.3507 2.69533 2.41119 2.32512 2.53128 1.97297C4.53314 4.13464 7.30009 5.42902 10.2424 5.58024C10.3127 5.58775 10.3838 5.5768 10.4485 5.54845C10.5133 5.5201 10.5696 5.47535 10.6117 5.41861C10.6565 5.36494 10.6882 5.30162 10.7044 5.23362C10.7205 5.16561 10.7206 5.09479 10.7047 5.02673C10.6451 4.77768 10.6148 4.52253 10.6145 4.26645C10.6154 3.37477 10.9699 2.51986 11.6003 1.88917C12.2306 1.25849 13.0853 0.90351 13.977 0.902076C14.4363 0.90077 14.8909 0.994697 15.3121 1.17793C15.7332 1.36116 16.1119 1.62972 16.424 1.96665C16.4764 2.02257 16.5423 2.06419 16.6152 2.08757C16.6882 2.11096 16.766 2.11533 16.8412 2.10028C17.4819 1.97413 18.105 1.77068 18.6967 1.49441C18.5429 2.41479 18.104 3.26335 17.4407 3.91972Z" fill="#36443A"/>
</svg>
