<svg width="60" height="60" viewBox="0 0 60 60" fill="none" xmlns="http://www.w3.org/2000/svg">
<g clip-path="url(#clip0_1987_2904)">
<path d="M30 5C27.2182 4.99884 24.5014 5.84148 22.2085 7.41666C19.9156 8.99183 18.1544 11.2254 17.1575 13.8225C16.1204 13.5237 15.0691 13.2767 14.0075 13.0825C11.8241 12.687 9.60894 12.4929 7.39 12.5025L6.96 12.5125L6.84 12.5175C6.37136 12.5362 5.9262 12.7276 5.5902 13.0548C5.25419 13.3821 5.0511 13.822 5.02 14.29L5.0175 14.34L5.0125 14.4625C5.0075 14.5625 5.00417 14.705 5.0025 14.89C4.9975 15.255 5 15.7775 5.0225 16.42C5.0725 17.705 5.215 19.49 5.5825 21.5075C5.9175 23.345 6.4525 25.42 7.3075 27.5H6.875C6.37772 27.5 5.90081 27.6975 5.54917 28.0492C5.19754 28.4008 5 28.8777 5 29.375V30C5 43.8075 16.1925 55 30 55C43.8075 55 55 43.8075 55 30V29.375C55 28.8777 54.8025 28.4008 54.4508 28.0492C54.0992 27.6975 53.6223 27.5 53.125 27.5H52.4925L52.4975 27.1875C52.4961 24.4813 51.5949 21.8523 49.9357 19.7143C48.2766 17.5764 45.9537 16.0507 43.3325 15.3775C42.5818 12.4103 40.8626 9.77843 38.4471 7.89871C36.0317 6.01898 33.0582 4.99889 29.9975 5M20.6825 15.1C21.4144 13.2327 22.6908 11.6286 24.346 10.4958C26.0011 9.3631 27.9586 8.7541 29.9642 8.7479C31.9698 8.7417 33.931 9.33858 35.5931 10.4611C37.2552 11.5835 38.5415 13.1798 39.285 15.0425C37.1353 15.2237 35.0722 15.9717 33.3058 17.2101C31.5394 18.4486 30.133 20.1333 29.23 22.0925C28.5559 21.0936 27.7883 20.161 26.9375 19.3075C25.065 17.435 22.8875 16.0825 20.6825 15.1ZM48.75 27.1875C48.75 27.2925 48.7475 27.3967 48.7425 27.5H31.92L31.875 27.375V27.1875C31.875 24.9497 32.7639 22.8036 34.3463 21.2213C35.9286 19.639 38.0747 18.75 40.3125 18.75C42.5503 18.75 44.6964 19.639 46.2787 21.2213C47.8611 22.8036 48.75 24.9497 48.75 27.1875ZM24.2875 21.96C25.895 23.565 27.06 25.4975 27.9 27.5H22.65L18.2 23.05C18.0283 22.8658 17.8213 22.718 17.5913 22.6155C17.3613 22.5131 17.1131 22.458 16.8613 22.4535C16.6095 22.4491 16.3595 22.4954 16.126 22.5897C15.8925 22.684 15.6805 22.8244 15.5024 23.0024C15.3244 23.1805 15.184 23.3925 15.0897 23.626C14.9954 23.8595 14.9491 24.1095 14.9535 24.3613C14.958 24.6131 15.0131 24.8613 15.1155 25.0913C15.218 25.3213 15.3658 25.5283 15.55 25.7L17.35 27.5H11.425C10.325 25.31 9.665 22.9675 9.275 20.8325C9.00137 19.3278 8.83429 17.8057 8.775 16.2775V16.2725C9.925 16.315 11.53 16.4425 13.3325 16.7725C16.9825 17.44 21.23 18.8975 24.2875 21.96ZM11.97 41.25H48.03C46.1204 44.31 43.4633 46.8337 40.309 48.5831C37.1547 50.3326 33.607 51.2504 30 51.25C26.393 51.2504 22.8453 50.3326 19.691 48.5831C16.5367 46.8337 13.8796 44.31 11.97 41.25ZM8.785 31.25H51.215C51.0908 33.3882 50.6441 35.4953 49.89 37.5H10.11C9.35589 35.4953 8.90917 33.3882 8.785 31.25Z" fill="#36443A"/>
<path d="M50.5 0.5L40 11" stroke="#36443A" stroke-width="3" stroke-linecap="round" stroke-linejoin="round"/>
<path d="M11 42L1 51" stroke="#36443A" stroke-width="3" stroke-linecap="round" stroke-linejoin="round"/>
</g>
<defs>
<clipPath id="clip0_1987_2904">
<rect width="60" height="60" fill="white"/>
</clipPath>
</defs>
</svg>
