<svg width="66" height="66" viewBox="0 0 66 66" fill="none" xmlns="http://www.w3.org/2000/svg">
<path d="M52.25 16.5247V16.5M52.25 24.761V24.739M52.25 33V32.9753M5.5 41.25V19.25C5.5 14.0635 5.5 11.473 7.1115 9.8615C8.723 8.25 11.3135 8.25 16.5 8.25H49.5C54.6865 8.25 57.277 8.25 58.8885 9.8615C60.5 11.473 60.5 14.0635 60.5 19.25V41.25C60.5 46.4365 60.5 49.027 58.8885 50.6385C57.277 52.25 54.6865 52.25 49.5 52.25H16.5C11.3135 52.25 8.723 52.25 7.1115 50.6385C5.5 49.027 5.5 46.4365 5.5 41.25Z" stroke="#36443A" stroke-width="4" stroke-linecap="round" stroke-linejoin="round"/>
<path d="M13.75 52.25V57.75M52.25 52.25V57.75M13.75 38.5V22C13.75 19.4067 13.75 18.1115 14.5558 17.3058C15.3615 16.5 16.6567 16.5 19.25 16.5H38.5C41.0933 16.5 42.3885 16.5 43.1942 17.3058C44 18.1115 44 19.4067 44 22V38.5C44 41.0933 44 42.3885 43.1942 43.1942C42.3885 44 41.0933 44 38.5 44H19.25C16.6567 44 15.3615 44 14.5558 43.1942C13.75 42.3885 13.75 41.0933 13.75 38.5Z" stroke="#36443A" stroke-width="4" stroke-linecap="round" stroke-linejoin="round"/>
</svg>
