<svg width="67" height="67" viewBox="0 0 67 67" fill="none" xmlns="http://www.w3.org/2000/svg">
<path d="M33.5003 8.375H13.9587C12.1077 8.375 10.3325 9.1103 9.02364 10.4192C7.7148 11.728 6.97949 13.5032 6.97949 15.3542V51.6458C6.97949 53.4968 7.7148 55.272 9.02364 56.5809C10.3325 57.8897 12.1077 58.625 13.9587 58.625H41.8753" stroke="#36443A" stroke-width="4" stroke-linecap="round" stroke-linejoin="round"/>
<path d="M26.5212 8.375V32.8356L6.97949 39.0833M26.5212 33.5L43.2712 39.0833" stroke="#36443A" stroke-width="4" stroke-linecap="round" stroke-linejoin="round"/>
<path d="M51.6465 25.125V58.625" stroke="#36443A" stroke-width="4" stroke-linecap="round"/>
<path d="M43.2715 18.6108C43.2715 9.92593 48.8548 5.5835 51.6465 5.5835C54.4382 5.5835 60.0215 9.92593 60.0215 18.6108C60.0215 27.2971 43.2715 27.2971 43.2715 18.6108Z" stroke="#36443A" stroke-width="4"/>
</svg>
