<svg xmlns="http://www.w3.org/2000/svg" width="189" height="31" viewBox="0 0 189 31" fill="none">
  <path fill-rule="evenodd" clip-rule="evenodd" d="M179.065 28.235C178.796 28.7416 178.462 29.2138 178.065 29.6517C177.668 30.0897 177.218 30.4238 176.714 30.6542C176.212 30.8846 175.621 30.9998 174.943 30.9998C174.124 30.9998 173.411 30.7809 172.803 30.3429C172.195 29.905 171.891 29.2947 171.891 28.5112C171.891 27.9818 172.072 27.5157 172.434 27.112C172.797 26.7093 173.306 26.507 173.96 26.507C174.873 26.507 175.551 26.8412 175.995 27.5095C176.159 27.7628 176.27 28.0161 176.329 28.2693C176.387 28.5235 176.44 28.753 176.486 28.9614C176.58 29.2375 176.767 29.3756 177.047 29.3756C177.399 29.3756 177.726 29.1628 178.03 28.7363C178.334 28.3098 178.638 27.7399 178.942 27.0259C178.966 26.9564 179.012 26.8245 179.083 26.6284C179.153 26.4323 179.224 26.2309 179.293 26.0234C179.363 25.8158 179.421 25.6197 179.468 25.4359C179.515 25.2513 179.539 25.1246 179.539 25.056C179.585 24.7333 179.58 24.451 179.522 24.2092C179.462 23.9673 179.386 23.7545 179.293 23.5699L174.943 12.6153C174.686 11.9478 174.44 11.3718 174.206 10.8873C173.972 10.4036 173.773 10.0351 173.61 9.78185C173.423 9.48198 173.265 9.23487 173.135 9.03877C173.007 8.84266 172.838 8.68701 172.627 8.57269C172.276 8.41088 171.926 8.30711 171.575 8.26138V7.98438H180.906V8.26138C180.439 8.30711 180.065 8.41088 179.785 8.57269C179.667 8.68701 179.557 8.81452 179.451 8.95259C179.345 9.09065 179.293 9.28676 179.293 9.54002C179.293 9.83901 179.351 10.1732 179.468 10.5416C179.585 10.9101 179.737 11.3718 179.924 11.9241L182.24 18.4896H182.346L184.801 12.0621C185.059 11.487 185.222 11.0253 185.292 10.6806C185.362 10.335 185.398 10.0008 185.398 9.67809C185.398 9.35535 185.333 9.11351 185.204 8.95259C185.076 8.79078 184.906 8.65271 184.696 8.53751C184.415 8.3757 184.122 8.28425 183.819 8.26138V7.98438H188.59V8.26138C188.426 8.28425 188.274 8.31327 188.133 8.34756C187.993 8.38186 187.853 8.45661 187.713 8.57269C187.385 8.73362 187.058 9.04404 186.731 9.50484C186.59 9.75899 186.433 10.0694 186.258 10.4388C186.081 10.8072 185.876 11.2909 185.643 11.8898L184.906 13.7558C184.578 14.5851 184.221 15.5067 183.837 16.5206C183.45 17.5346 183.041 18.5819 182.609 19.6653C182.175 20.7479 181.772 21.7671 181.398 22.723C181.023 23.6798 180.696 24.509 180.415 25.2117C180.134 25.9143 179.948 26.3804 179.854 26.6108C179.598 27.1868 179.334 27.7285 179.065 28.235ZM157.505 15.277C157.609 15.8987 157.768 16.4 157.978 16.7799C158.189 17.1598 158.447 17.4306 158.75 17.5924C159.055 17.7534 159.393 17.8343 159.767 17.8343C160.141 17.8343 160.48 17.7534 160.785 17.5924C161.089 17.4306 161.346 17.1598 161.556 16.7799C161.767 16.4 161.931 15.8987 162.048 15.277C162.164 14.6553 162.223 13.8831 162.223 12.9615C162.223 12.0399 162.164 11.274 162.048 10.6637C161.931 10.0525 161.767 9.55741 161.556 9.17751C161.346 8.79762 161.089 8.52676 160.785 8.36495C160.48 8.20402 160.141 8.12312 159.767 8.12312C159.393 8.12312 159.055 8.20402 158.75 8.36495C158.447 8.52676 158.189 8.79146 157.978 9.1608C157.768 9.52927 157.609 10.0244 157.505 10.6461C157.4 11.2687 157.346 12.0399 157.346 12.9615C157.346 13.8831 157.4 14.6553 157.505 15.277ZM164.889 24.9885C164.351 24.6657 163.567 24.5048 162.539 24.5048C162.282 24.5048 161.959 24.511 161.574 24.5224C161.188 24.5338 160.79 24.5514 160.382 24.5734C159.972 24.5971 159.575 24.62 159.188 24.6437C158.803 24.6657 158.481 24.6895 158.224 24.7123C157.755 24.7581 157.294 24.839 156.838 24.9542C156.381 25.0694 155.978 25.2365 155.628 25.4545C155.276 25.6735 154.996 25.962 154.785 26.319C154.575 26.676 154.47 27.1078 154.47 27.6143C154.47 28.5825 154.874 29.2913 155.68 29.7398C156.488 30.1892 157.663 30.4143 159.205 30.4143C160.118 30.4143 160.966 30.3396 161.749 30.1892C162.533 30.0397 163.217 29.8155 163.801 29.5156C164.386 29.2157 164.848 28.8472 165.188 28.4102C165.527 27.9722 165.696 27.4534 165.696 26.8545C165.696 25.9329 165.427 25.3112 164.889 24.9885ZM167.836 27.4422C167.299 28.2257 166.586 28.8765 165.696 29.3945C164.808 29.9133 163.802 30.3055 162.68 30.5693C161.557 30.8349 160.399 30.9668 159.206 30.9668C156.891 30.9668 155.108 30.6968 153.857 30.1551C152.605 29.6134 151.98 28.8018 151.98 27.7192C151.98 26.9357 152.36 26.2673 153.12 25.7142C153.881 25.1619 154.962 24.7812 156.365 24.5736V24.505C155.477 24.367 154.716 24.039 154.084 23.5201C153.453 23.0013 153.138 22.2591 153.138 21.2917C153.138 20.8072 153.242 20.3701 153.453 19.9779C153.664 19.5866 153.932 19.2463 154.259 18.9587C154.588 18.6711 154.95 18.4293 155.348 18.2332C155.746 18.0371 156.131 17.8929 156.505 17.8005V17.6625C155.57 17.2712 154.769 16.689 154.103 15.9178C153.436 15.1457 153.103 14.1607 153.103 12.963C153.103 12.088 153.291 11.3221 153.664 10.6651C154.037 10.0082 154.54 9.45598 155.173 9.00574C155.804 8.55724 156.517 8.21692 157.312 7.98652C158.108 7.75612 158.926 7.6418 159.768 7.6418C160.75 7.6418 161.698 7.80273 162.61 8.12458C163.522 8.4482 164.294 8.93099 164.925 9.57646H165.065C165.253 8.93099 165.615 8.40775 166.153 8.00411C166.691 7.60134 167.311 7.39996 168.012 7.39996C168.714 7.39996 169.247 7.5776 169.608 7.93551C169.971 8.29167 170.152 8.77006 170.152 9.36892C170.152 9.82973 170.012 10.2096 169.732 10.5095C169.45 10.8094 169.053 10.9589 168.539 10.9589C167.79 10.9589 167.252 10.5552 166.925 9.74882C166.808 9.49556 166.714 9.29418 166.644 9.14468C166.574 8.99518 166.445 8.91955 166.258 8.91955C166.024 8.91955 165.843 9.02332 165.715 9.23086C165.586 9.4384 165.522 9.68023 165.522 9.95636C165.522 10.141 165.562 10.3195 165.644 10.4919C165.726 10.6651 165.837 10.9017 165.978 11.2007C166.094 11.454 166.194 11.7248 166.276 12.0124C166.357 12.3008 166.398 12.606 166.398 12.9287C166.398 13.8266 166.218 14.6101 165.855 15.2784C165.492 15.9459 165.007 16.5052 164.399 16.9546C163.79 17.4039 163.083 17.7434 162.276 17.9738C161.469 18.2042 160.634 18.3194 159.768 18.3194C159.277 18.3194 158.838 18.2965 158.453 18.2508C158.067 18.2042 157.675 18.1585 157.277 18.1119C156.879 18.1347 156.493 18.2385 156.119 18.4232C155.746 18.6069 155.558 18.9068 155.558 19.321C155.558 20.1046 156.201 20.4968 157.488 20.4968C157.745 20.4968 158.13 20.4792 158.645 20.4449C159.16 20.4106 159.71 20.3754 160.294 20.3411C160.879 20.3059 161.44 20.2716 161.978 20.2373C162.516 20.203 162.948 20.1855 163.276 20.1855C166.855 20.1855 168.644 21.7059 168.644 24.7469C168.644 25.7608 168.375 26.6595 167.836 27.4422ZM140.334 20.1691C140.544 21.3088 140.883 22.1328 141.351 22.6393C141.632 22.9154 141.942 23.1115 142.282 23.2267C142.62 23.3419 142.965 23.4 143.316 23.4C143.666 23.4 144.012 23.3419 144.351 23.2267C144.69 23.1115 144.999 22.9154 145.28 22.6393C145.748 22.1328 146.087 21.3088 146.298 20.1691C146.508 19.0285 146.613 17.5714 146.613 15.7976C146.613 14.0001 146.508 12.5254 146.298 11.3743C146.087 10.2214 145.748 9.41586 145.28 8.95506C144.999 8.67805 144.684 8.48283 144.333 8.36675C143.982 8.25243 143.643 8.19439 143.316 8.19439C142.965 8.19439 142.62 8.25243 142.282 8.36675C141.942 8.48283 141.632 8.67805 141.351 8.95506C140.883 9.41586 140.544 10.2214 140.334 11.3743C140.124 12.5254 140.017 14.0001 140.017 15.7976C140.017 17.5714 140.124 19.0285 140.334 20.1691ZM135.611 12.41C136.043 11.3969 136.64 10.5386 137.4 9.83598C138.161 9.13335 139.043 8.59164 140.048 8.21175C141.054 7.83097 142.141 7.6419 143.312 7.6419C144.48 7.6419 145.574 7.83097 146.592 8.21175C147.609 8.59164 148.492 9.13335 149.24 9.83598C149.988 10.5386 150.579 11.3908 151.013 12.3933C151.445 13.3958 151.66 14.5302 151.66 15.7974C151.66 17.0408 151.445 18.17 151.013 19.1831C150.579 20.197 149.988 21.0553 149.24 21.7579C148.492 22.4605 147.609 23.0014 146.592 23.3822C145.574 23.7621 144.48 23.952 143.312 23.952C142.141 23.952 141.049 23.7621 140.031 23.3822C139.013 23.0014 138.131 22.4605 137.382 21.7579C136.634 21.0553 136.043 20.2031 135.611 19.2006C135.178 18.1981 134.962 17.0637 134.962 15.7974C134.962 14.553 135.178 13.4239 135.611 12.41ZM133.089 21.0154C133.089 21.3847 133.114 21.6951 133.16 21.9484C133.253 22.2711 133.377 22.513 133.529 22.6739C133.68 22.8348 133.85 22.9738 134.037 23.089C134.318 23.2042 134.656 23.2851 135.054 23.3308V23.6412H126.284V23.3308C126.471 23.308 126.641 23.2789 126.793 23.2446C126.945 23.2103 127.078 23.1585 127.195 23.089C127.405 22.9738 127.593 22.841 127.757 22.6915C127.92 22.542 128.026 22.3397 128.073 22.0865C128.144 21.7646 128.184 21.4243 128.195 21.0673C128.208 20.7102 128.213 20.267 128.213 19.7367V3.70277V2.64837C128.213 2.199 128.189 1.85956 128.144 1.62916C128.003 1.14549 127.792 0.811323 127.511 0.62665C127.347 0.51145 127.184 0.436701 127.02 0.402405C126.856 0.368109 126.646 0.339089 126.389 0.316225V0.00491943H132.879C133.043 0.00491943 133.125 0.0972557 133.125 0.281049C133.125 0.649514 133.119 1.05316 133.106 1.49021C133.096 1.92815 133.089 2.48129 133.089 3.14963V19.7367V21.0154ZM114.849 20.1691C115.06 21.3088 115.399 22.1328 115.867 22.6393C116.147 22.9154 116.457 23.1115 116.796 23.2267C117.136 23.3419 117.48 23.4 117.831 23.4C118.182 23.4 118.527 23.3419 118.866 23.2267C119.205 23.1115 119.516 22.9154 119.796 22.6393C120.263 22.1328 120.602 21.3088 120.814 20.1691C121.024 19.0285 121.129 17.5714 121.129 15.7976C121.129 14.0001 121.024 12.5254 120.814 11.3743C120.602 10.2214 120.263 9.41586 119.796 8.95506C119.516 8.67805 119.2 8.48283 118.848 8.36675C118.498 8.25243 118.159 8.19439 117.831 8.19439C117.48 8.19439 117.136 8.25243 116.796 8.36675C116.457 8.48283 116.147 8.67805 115.867 8.95506C115.399 9.41586 115.06 10.2214 114.849 11.3743C114.64 12.5254 114.533 14.0001 114.533 15.7976C114.533 17.5714 114.64 19.0285 114.849 20.1691ZM110.131 12.41C110.563 11.3969 111.16 10.5386 111.92 9.83598C112.679 9.13335 113.562 8.59164 114.569 8.21175C115.573 7.83097 116.661 7.6419 117.831 7.6419C118.999 7.6419 120.094 7.83097 121.112 8.21175C122.128 8.59164 123.012 9.13335 123.759 9.83598C124.508 10.5386 125.099 11.3908 125.532 12.3933C125.964 13.3958 126.18 14.5302 126.18 15.7974C126.18 17.0408 125.964 18.17 125.532 19.1831C125.099 20.197 124.508 21.0553 123.759 21.7579C123.012 22.4605 122.128 23.0014 121.112 23.3822C120.094 23.7621 118.999 23.952 117.831 23.952C116.661 23.952 115.568 23.7621 114.551 23.3822C113.533 23.0014 112.651 22.4605 111.902 21.7579C111.153 21.0553 110.563 20.2031 110.131 19.2006C109.697 18.1981 109.481 17.0637 109.481 15.7974C109.481 14.553 109.697 13.4239 110.131 12.41ZM102.371 11.1822C102.231 10.6643 102.032 10.2202 101.775 9.85171C101.518 9.46038 101.225 9.15523 100.898 8.93626C100.571 8.7173 100.162 8.60825 99.6699 8.60825C98.6879 8.60825 97.9103 9.17194 97.3371 10.3011C96.764 11.4302 96.4783 13.2849 96.4783 15.865C96.4783 17.2245 96.5479 18.3528 96.6881 19.2515C96.8283 20.1503 97.0389 20.8643 97.3193 21.3937C97.6005 21.924 97.9344 22.3039 98.3192 22.5343C98.7057 22.7647 99.1441 22.8799 99.6351 22.8799C100.08 22.8799 100.489 22.7471 100.864 22.4824C101.238 22.2177 101.547 21.8721 101.793 21.4456C102.038 21.02 102.231 20.524 102.371 19.9595C102.512 19.3958 102.582 18.8022 102.582 18.1804V12.9621C102.582 12.2938 102.512 11.7011 102.371 11.1822ZM101.143 23.1398C100.441 23.6815 99.4944 23.9514 98.3017 23.9514C97.4125 23.9514 96.559 23.7791 95.7403 23.4335C94.9226 23.0879 94.1905 22.5805 93.5477 21.913C92.9049 21.2447 92.3898 20.404 92.0042 19.39C91.6176 18.3761 91.4257 17.1898 91.4257 15.8311C91.4257 14.5402 91.6238 13.389 92.022 12.3751C92.4193 11.3612 92.946 10.5029 93.6004 9.80112C94.2557 9.09761 95.0092 8.56206 95.8626 8.19359C96.7161 7.82513 97.5999 7.64134 98.5115 7.64134C99.6819 7.64134 100.582 7.86558 101.213 8.31495C101.845 8.76344 102.29 9.28844 102.547 9.88731H102.616V4.28909C102.616 3.85115 102.611 3.36133 102.598 2.8205C102.588 2.2788 102.557 1.89274 102.512 1.66234C102.488 1.38621 102.435 1.19011 102.354 1.07491C102.272 0.959708 102.173 0.867372 102.056 0.798779C101.681 0.498906 101.19 0.337978 100.582 0.315113V0.00380829H107.318C107.458 -0.0190559 107.528 0.0609688 107.528 0.245641C107.504 0.844508 107.476 1.68521 107.44 2.76862C107.405 3.85115 107.387 4.98029 107.387 6.15516V19.8737V20.8762C107.387 21.2218 107.411 21.5217 107.458 21.7749C107.551 22.3509 107.82 22.7651 108.265 23.0184C108.452 23.1336 108.662 23.2092 108.896 23.2435C109.131 23.2778 109.341 23.3068 109.528 23.3297V23.6401H108.843C108.481 23.6401 108.066 23.6463 107.599 23.6577C107.13 23.67 106.627 23.6815 106.089 23.6929C105.552 23.7043 105.054 23.7158 104.598 23.7272C104.143 23.7386 103.756 23.7448 103.441 23.7448H102.897C102.78 23.7448 102.722 23.6867 102.722 23.5715V21.0143H102.616C102.336 21.8901 101.845 22.5981 101.143 23.1398ZM78.7756 20.1691C78.9854 21.3088 79.3246 22.1328 79.7924 22.6393C80.0736 22.9154 80.3825 23.1115 80.7218 23.2267C81.061 23.3419 81.4065 23.4 81.7574 23.4C82.1082 23.4 82.4528 23.3419 82.7921 23.2267C83.1313 23.1115 83.4411 22.9154 83.7214 22.6393C84.1892 22.1328 84.5285 21.3088 84.7392 20.1691C84.9499 19.0285 85.0552 17.5714 85.0552 15.7976C85.0552 14.0001 84.9499 12.5254 84.7392 11.3743C84.5285 10.2214 84.1892 9.41586 83.7214 8.95506C83.4411 8.67805 83.126 8.48283 82.7742 8.36675C82.4243 8.25243 82.085 8.19439 81.7574 8.19439C81.4065 8.19439 81.061 8.25243 80.7218 8.36675C80.3825 8.48283 80.0736 8.67805 79.7924 8.95506C79.3246 9.41586 78.9854 10.2214 78.7756 11.3743C78.564 12.5254 78.4595 14.0001 78.4595 15.7976C78.4595 17.5714 78.564 19.0285 78.7756 20.1691ZM74.0569 12.41C74.489 11.3969 75.0853 10.5386 75.8451 9.83598C76.6057 9.13335 77.4886 8.59164 78.4939 8.21175C79.5 7.83097 80.5874 7.6419 81.7569 7.6419C82.9264 7.6419 84.02 7.83097 85.0369 8.21175C86.0537 8.59164 86.9366 9.13335 87.6857 9.83598C88.4338 10.5386 89.0248 11.3908 89.4578 12.3933C89.8899 13.3958 90.1059 14.5302 90.1059 15.7974C90.1059 17.0408 89.8899 18.17 89.4578 19.1831C89.0248 20.197 88.4338 21.0553 87.6857 21.7579C86.9366 22.4605 86.0537 23.0014 85.0369 23.3822C84.02 23.7621 82.9264 23.952 81.7569 23.952C80.5874 23.952 79.4937 23.7621 78.4769 23.3822C77.4592 23.0014 76.5762 22.4605 75.8281 21.7579C75.0791 21.0553 74.489 20.2031 74.0569 19.2006C73.623 18.1981 73.4069 17.0637 73.4069 15.7974C73.4069 14.553 73.623 13.4239 74.0569 12.41ZM71.5489 20.9292C71.5721 21.3557 71.6195 21.7066 71.6891 21.9827C71.7364 22.2826 71.8239 22.513 71.9525 22.6739C72.081 22.8348 72.2738 22.9852 72.5319 23.1233C72.7649 23.2156 73.0809 23.2851 73.4782 23.3308V23.6412H65.0238V23.3308C65.3514 23.2851 65.6192 23.1928 65.8308 23.0538C65.9942 22.9624 66.1353 22.8296 66.2513 22.6572C66.3683 22.484 66.462 22.1788 66.5325 21.7409C66.579 21.4647 66.6147 21.1306 66.6379 20.7392C66.6602 20.347 66.6727 19.8862 66.6727 19.3568V11.5812C66.6727 10.752 66.5441 10.1417 66.2861 9.74947C65.9362 9.24294 65.3978 8.98968 64.6729 8.98968C64.0417 8.98968 63.4454 9.22008 62.8838 9.68088C62.3223 10.1417 61.9009 10.8557 61.6206 11.8231C61.4572 12.3305 61.3456 12.8432 61.2876 13.3611C61.2287 13.8791 61.1992 14.507 61.1992 15.2448V19.3568C61.1992 19.8643 61.2117 20.3066 61.2349 20.6874C61.259 21.0673 61.2813 21.3847 61.3046 21.6371C61.3751 22.0988 61.4751 22.4268 61.6027 22.622C61.7322 22.8181 61.8902 22.9624 62.0777 23.0538C62.3571 23.2156 62.6267 23.308 62.8838 23.3308V23.6412H54.3589V23.3308C54.6857 23.308 54.9785 23.2385 55.2365 23.1233C55.54 23.0081 55.7677 22.87 55.9195 22.7091C56.0721 22.5473 56.1828 22.2826 56.2533 21.9141C56.2998 21.6608 56.3346 21.3091 56.3578 20.8597C56.3819 20.4112 56.3935 19.91 56.3935 19.3568V3.70277C56.3935 3.28769 56.3819 2.9078 56.3578 2.56219C56.3346 2.21659 56.2998 1.91672 56.2533 1.66345C56.1355 1.13406 55.9382 0.788459 55.657 0.62665C55.3767 0.419114 54.9785 0.316225 54.4634 0.316225V0.00491943H61.0242C61.1885 0.00491943 61.2697 0.0849442 61.2697 0.246753C61.2697 0.477153 61.2635 0.90278 61.2528 1.52539C61.2412 2.148 61.2349 2.86207 61.2349 3.66759V11.0976H61.3046C61.6786 10.1074 62.2643 9.32385 63.0588 8.74784C63.948 8.01091 65.1872 7.64245 66.7772 7.64245C67.4789 7.64245 68.135 7.73918 68.7421 7.93616C69.351 8.13139 69.8652 8.4594 70.2857 8.92021C70.7303 9.35814 71.0463 9.87083 71.2329 10.4583C71.4204 11.0457 71.5141 11.7431 71.5141 12.5486V19.4949C71.5141 20.0252 71.5257 20.5036 71.5489 20.9292ZM52.8499 23.1908C52.1009 23.6974 51.0832 23.9506 49.7976 23.9506C48.9316 23.9506 48.2478 23.882 47.7452 23.744C47.2417 23.605 46.7917 23.3755 46.3944 23.0519C45.8793 22.6148 45.5526 22.1074 45.4124 21.5314C45.2713 20.9563 45.2008 20.3223 45.2008 19.6311V18.7675V16.8495C45.2008 16.1012 45.2071 15.2833 45.2196 14.396C45.2303 13.5087 45.2365 12.6742 45.2365 11.8906C45.2365 11.1071 45.2419 10.4282 45.2544 9.85132C45.266 9.27532 45.2713 8.91829 45.2713 8.78022C44.9205 8.75736 44.5179 8.74065 44.0617 8.72834C43.6046 8.71691 43.2484 8.69932 42.9912 8.67646V8.22796C44.5116 7.97382 45.7865 7.40397 46.8149 6.51667C47.8443 5.62936 48.7326 4.33401 49.4816 2.62887H50.077V7.98525H53.7257V8.8154H50.077L50.0074 20.5298C50.0074 21.1287 50.1413 21.5956 50.4109 21.9298C50.6797 22.2631 51.1885 22.4302 51.9367 22.4302C52.9196 22.4302 53.6909 22.0503 54.2525 21.2905L54.5328 21.5314C54.1587 22.1312 53.5981 22.6843 52.8499 23.1908ZM32.9568 11.0458C32.7238 11.9789 32.5827 13.0904 32.5363 14.3805H37.1322C37.5527 14.3805 37.8393 14.2943 37.991 14.1211C38.1437 13.9487 38.2196 13.5855 38.2196 13.0333C38.2196 11.9965 38.15 11.1496 38.0089 10.4927C37.8687 9.83667 37.6705 9.31256 37.4134 8.92035C37.2019 8.68995 36.9626 8.51758 36.693 8.40238C36.4243 8.28718 36.0681 8.23002 35.6235 8.23002C34.8977 8.23002 34.2906 8.50615 33.7996 9.05929C33.4719 9.45062 33.1907 10.1128 32.9568 11.0458ZM41.8338 20.7211C41.4598 21.3552 40.9911 21.9136 40.4304 22.3972C39.8689 22.8809 39.2073 23.2608 38.4485 23.5378C37.6879 23.8139 36.8049 23.952 35.7988 23.952C34.5132 23.952 33.3785 23.7796 32.3965 23.434C31.4145 23.0884 30.5726 22.5933 29.87 21.9479C29.0049 21.1652 28.3791 20.2542 27.9934 19.2182C27.6069 18.1814 27.414 17.076 27.414 15.9003C27.414 14.6568 27.631 13.5215 28.064 12.497C28.4961 11.4717 29.0862 10.6019 29.8352 9.88787C30.5833 9.17292 31.4493 8.62066 32.4313 8.22933C33.4134 7.83712 34.4659 7.6419 35.589 7.6419C36.8049 7.6419 37.8575 7.82569 38.7458 8.19416C39.635 8.56262 40.3653 9.04101 40.9384 9.62845C41.5116 10.2159 41.9383 10.8781 42.2186 11.6159C42.4998 12.3528 42.64 13.0783 42.64 13.7924V14.3974C42.64 14.6164 42.6168 14.8177 42.5704 15.0015H32.5019V15.5899C32.5019 17.2255 32.6126 18.5385 32.8349 19.5295C33.0572 20.5197 33.3785 21.2452 33.7999 21.706C34.5016 22.5124 35.4837 22.9152 36.7469 22.9152C37.5415 22.9152 38.2369 22.7886 38.8333 22.5353C39.4296 22.282 39.9457 21.9479 40.3778 21.5328C40.8098 21.1186 41.167 20.6525 41.4473 20.1337C41.7285 19.6157 41.9508 19.0793 42.1133 18.527L42.7105 18.6994C42.4998 19.4135 42.2079 20.0879 41.8338 20.7211ZM26.9434 1.40172C26.7336 1.43689 26.5345 1.4879 26.347 1.55737C26.1595 1.67257 25.9729 1.81151 25.7855 1.97244C25.5989 2.13337 25.4462 2.34091 25.3293 2.59417C25.1891 2.93977 25.0962 3.40058 25.0489 3.97658C25.0016 4.55258 24.9793 5.25522 24.9793 6.08448V18.5253C24.9793 19.2851 25.0016 19.9587 25.0489 20.547C25.0962 21.1344 25.1891 21.6234 25.3293 22.0156C25.5632 22.4526 25.9497 22.7982 26.4872 23.0515C26.6041 23.0981 26.7621 23.1385 26.9612 23.1728C27.1603 23.208 27.3647 23.2362 27.5754 23.259V23.6389H17.015V23.259C17.2257 23.2362 17.431 23.208 17.6292 23.1728C17.8283 23.1385 17.9979 23.0981 18.1381 23.0515C18.6756 22.822 19.0496 22.4764 19.2612 22.0156C19.4014 21.6234 19.5005 21.1344 19.5594 20.547C19.6174 19.9587 19.646 19.2851 19.646 18.5253V4.42595H19.471L12.6655 23.7779H11.0166L3.82456 4.70208H3.64869V18.7671C3.64869 19.6192 3.69601 20.2814 3.78975 20.7536C3.88259 21.2259 4.01204 21.6234 4.17542 21.9461C4.54948 22.5687 4.99407 22.9372 5.5083 23.0515C5.69489 23.121 5.85915 23.1676 5.99932 23.1904C6.13948 23.2133 6.31535 23.2362 6.52604 23.259V23.6389H0V23.259C0.187479 23.2362 0.351746 23.2133 0.491908 23.1904C0.632071 23.1676 0.783839 23.1324 0.948106 23.0867C1.50965 22.9486 1.95335 22.5793 2.28099 21.9804C2.44526 21.6585 2.58453 21.2549 2.70237 20.7712C2.81932 20.2876 2.87735 19.6192 2.87735 18.7671V6.32632C2.87735 5.42758 2.84253 4.70823 2.77201 4.16653C2.70237 3.6257 2.57292 3.14731 2.38544 2.73224C2.24528 2.36377 2.07119 2.09292 1.85961 1.92056C1.64892 1.74732 1.42662 1.61541 1.19272 1.52307C1.00614 1.4536 0.8133 1.40787 0.614216 1.38501C0.415131 1.36126 0.222296 1.33928 0.0348175 1.31554V0.935638H8.24549L13.9636 16.4174H14.1037L19.8227 0.935638H27.5754V1.31554C27.3647 1.33928 27.154 1.36742 26.9434 1.40172Z" fill="#36443A"/>
</svg>
