<svg width="57" height="48" viewBox="0 0 57 48" fill="none" xmlns="http://www.w3.org/2000/svg">
<path opacity="0.2" d="M41.5677 0C31.4935 0 39.4493 21.1369 0 20.2896C0.0470755 21.7018 0.141227 23.1612 0.42368 24.6205C3.20114 40.0613 17.9358 50.3238 33.3766 47.5463C47.0285 45.0984 56.6319 33.2824 56.726 19.8659C51.5477 9.69757 48.3466 0 41.5677 0Z" fill="#36443A"/>
<path opacity="0.4" d="M0 20.9964C0.0470755 22.1733 0.188302 23.3973 0.376604 24.5742C3.15406 40.0149 17.8887 50.2774 33.3295 47.5C48.7703 44.7225 59.0327 29.9878 56.2553 14.5471C56.2553 14.4529 56.2082 14.3588 56.2082 14.2646C54.2781 13.4643 52.2539 12.8053 50.0884 12.3345C36.8131 9.6512 40.1554 27.4458 0 20.9964Z" fill="#36443A"/>
<path opacity="0.6" d="M0.75293 26.0785C4.18944 40.6719 18.4533 50.1812 33.3763 47.5449C47.4519 45.0029 57.1965 32.5278 56.7257 18.6876C50.1352 14.7333 42.9326 12.5678 35.3064 11.2497C19.1124 8.42514 25.8913 22.642 0.75293 26.0785Z" fill="#36443A"/>
<path opacity="0.8" d="M0.330078 23.8683C0.377154 24.1037 0.377154 24.3391 0.424229 24.5745C3.20169 40.0152 17.9363 50.2777 33.3771 47.5002C41.8507 45.9938 48.7708 40.8155 52.8193 33.9425C29.0932 30.6943 33.1888 18.8312 17.6068 18.8312C11.0162 18.8312 5.08471 20.6672 0.330078 23.8683Z" fill="#36443A"/>
</svg>
