<svg width="134" height="22" viewBox="0 0 134 22" fill="none" xmlns="http://www.w3.org/2000/svg">
<path fill-rule="evenodd" clip-rule="evenodd" d="M127.078 20.0379C126.887 20.3974 126.651 20.7325 126.369 21.0433C126.087 21.3541 125.767 21.5913 125.41 21.7548C125.054 21.9183 124.635 22.0001 124.153 22.0001C123.572 22.0001 123.066 21.8447 122.634 21.5339C122.203 21.2231 121.987 20.79 121.987 20.2339C121.987 19.8582 122.115 19.5274 122.373 19.241C122.63 18.9551 122.991 18.8116 123.455 18.8116C124.104 18.8116 124.584 19.0488 124.9 19.5231C125.016 19.7028 125.095 19.8825 125.137 20.0623C125.178 20.2426 125.215 20.4055 125.248 20.5534C125.315 20.7494 125.447 20.8474 125.646 20.8474C125.896 20.8474 126.128 20.6963 126.344 20.3937C126.56 20.091 126.775 19.6866 126.991 19.1798C127.008 19.1305 127.041 19.0369 127.091 18.8977C127.141 18.7586 127.191 18.6156 127.24 18.4684C127.29 18.3211 127.331 18.1819 127.365 18.0515C127.397 17.9204 127.415 17.8305 127.415 17.7819C127.448 17.5528 127.444 17.3525 127.403 17.1809C127.36 17.0092 127.306 16.8582 127.24 16.7272L124.153 8.95293C123.971 8.47925 123.796 8.07047 123.63 7.7266C123.464 7.38336 123.323 7.12186 123.207 6.94213C123.074 6.72931 122.962 6.55395 122.87 6.41477C122.779 6.2756 122.659 6.16514 122.51 6.08401C122.261 5.96918 122.012 5.89554 121.763 5.86308V5.6665H128.385V5.86308C128.053 5.89554 127.788 5.96918 127.589 6.08401C127.506 6.16514 127.427 6.25563 127.353 6.35361C127.277 6.4516 127.24 6.59077 127.24 6.7705C127.24 6.98269 127.282 7.21984 127.365 7.48134C127.448 7.74283 127.555 8.07047 127.688 8.4624L129.332 13.1218H129.407L131.149 8.56038C131.332 8.15223 131.448 7.82458 131.497 7.57994C131.547 7.33468 131.573 7.09752 131.573 6.86848C131.573 6.63945 131.526 6.46782 131.435 6.35361C131.344 6.23878 131.224 6.1408 131.075 6.05905C130.875 5.94421 130.667 5.87931 130.452 5.86308V5.6665H133.838V5.86308C133.722 5.87931 133.613 5.8999 133.514 5.92424C133.415 5.94858 133.315 6.00163 133.216 6.08401C132.983 6.19822 132.751 6.41852 132.519 6.74554C132.419 6.9259 132.307 7.1462 132.183 7.40832C132.057 7.66981 131.912 8.01306 131.746 8.43806L131.224 9.76237C130.991 10.3509 130.738 11.0049 130.465 11.7245C130.19 12.4441 129.9 13.1873 129.593 13.9562C129.286 14.7245 128.999 15.4478 128.734 16.1262C128.468 16.8052 128.236 17.3937 128.037 17.8923C127.837 18.391 127.705 18.7217 127.638 18.8852C127.456 19.294 127.27 19.6785 127.078 20.0379ZM111.778 10.8417C111.852 11.2829 111.965 11.6387 112.113 11.9083C112.263 12.1779 112.446 12.3701 112.662 12.4849C112.878 12.5991 113.118 12.6566 113.383 12.6566C113.649 12.6566 113.889 12.5991 114.105 12.4849C114.321 12.3701 114.504 12.1779 114.653 11.9083C114.802 11.6387 114.919 11.2829 115.002 10.8417C115.084 10.4005 115.126 9.85255 115.126 9.19851C115.126 8.54446 115.084 8.00089 115.002 7.56777C114.919 7.13403 114.802 6.78267 114.653 6.51307C114.504 6.24346 114.321 6.05124 114.105 5.93641C113.889 5.8222 113.649 5.76479 113.383 5.76479C113.118 5.76479 112.878 5.8222 112.662 5.93641C112.446 6.05124 112.263 6.23909 112.113 6.50121C111.965 6.7627 111.852 7.11406 111.778 7.55529C111.703 7.99714 111.665 8.54446 111.665 9.19851C111.665 9.85255 111.703 10.4005 111.778 10.8417ZM117.018 17.7338C116.636 17.5047 116.08 17.3905 115.35 17.3905C115.168 17.3905 114.939 17.3949 114.665 17.403C114.391 17.4111 114.109 17.4236 113.819 17.4392C113.529 17.456 113.247 17.4723 112.972 17.4891C112.699 17.5047 112.471 17.5216 112.288 17.5378C111.955 17.5702 111.628 17.6277 111.304 17.7094C110.98 17.7912 110.694 17.9097 110.446 18.0645C110.196 18.2199 109.997 18.4246 109.848 18.678C109.699 18.9314 109.624 19.2378 109.624 19.5973C109.624 20.2844 109.91 20.7874 110.482 21.1057C111.056 21.4246 111.89 21.5844 112.984 21.5844C113.632 21.5844 114.234 21.5313 114.789 21.4246C115.346 21.3185 115.832 21.1594 116.246 20.9465C116.661 20.7337 116.989 20.4722 117.23 20.1621C117.471 19.8513 117.59 19.4831 117.59 19.0581C117.59 18.404 117.4 17.9628 117.018 17.7338ZM119.11 19.4751C118.728 20.0312 118.222 20.493 117.591 20.8606C116.961 21.2288 116.247 21.5071 115.45 21.6944C114.653 21.8828 113.831 21.9764 112.985 21.9764C111.342 21.9764 110.077 21.7848 109.189 21.4004C108.3 21.016 107.857 20.4399 107.857 19.6717C107.857 19.1156 108.127 18.6413 108.666 18.2488C109.206 17.8569 109.973 17.5866 110.969 17.4393V17.3907C110.338 17.2927 109.799 17.0599 109.35 16.6917C108.902 16.3235 108.679 15.7968 108.679 15.1103C108.679 14.7664 108.753 14.4562 108.902 14.1779C109.052 13.9002 109.242 13.6586 109.474 13.4546C109.707 13.2505 109.965 13.0789 110.247 12.9397C110.529 12.8005 110.803 12.6982 111.068 12.6326V12.5347C110.404 12.2569 109.836 11.8438 109.363 11.2965C108.89 10.7485 108.654 10.0495 108.654 9.19954C108.654 8.57858 108.787 8.035 109.052 7.56881C109.317 7.10262 109.674 6.71069 110.122 6.39116C110.57 6.07288 111.077 5.83136 111.64 5.66785C112.206 5.50433 112.786 5.4232 113.383 5.4232C114.081 5.4232 114.753 5.53741 115.401 5.76583C116.048 5.99549 116.596 6.33811 117.044 6.79619H117.143C117.276 6.33811 117.533 5.96678 117.915 5.68033C118.297 5.3945 118.737 5.25158 119.234 5.25158C119.732 5.25158 120.111 5.37765 120.367 5.63165C120.624 5.8844 120.753 6.22391 120.753 6.64891C120.753 6.97593 120.654 7.24553 120.455 7.45835C120.255 7.67116 119.973 7.77725 119.608 7.77725C119.077 7.77725 118.695 7.4908 118.463 6.91851C118.38 6.73878 118.313 6.59586 118.264 6.48977C118.214 6.38367 118.123 6.33 117.989 6.33C117.823 6.33 117.695 6.40364 117.604 6.55093C117.512 6.69821 117.467 6.86983 117.467 7.0658C117.467 7.19685 117.496 7.32354 117.554 7.44586C117.612 7.56881 117.691 7.73669 117.791 7.94888C117.873 8.12861 117.944 8.32083 118.002 8.52491C118.06 8.72961 118.089 8.94617 118.089 9.1752C118.089 9.8124 117.961 10.3685 117.704 10.8428C117.446 11.3164 117.102 11.7134 116.67 12.0323C116.238 12.3512 115.736 12.5921 115.164 12.7556C114.591 12.9191 113.998 13.0008 113.383 13.0008C113.036 13.0008 112.724 12.9846 112.45 12.9522C112.176 12.9191 111.898 12.8866 111.616 12.8536C111.334 12.8698 111.059 12.9434 110.794 13.0745C110.529 13.2049 110.396 13.4177 110.396 13.7117C110.396 14.2677 110.852 14.5461 111.766 14.5461C111.948 14.5461 112.221 14.5336 112.587 14.5093C112.953 14.4849 113.342 14.46 113.757 14.4356C114.172 14.4107 114.57 14.3863 114.952 14.362C115.334 14.3376 115.641 14.3252 115.873 14.3252C118.413 14.3252 119.683 15.4042 119.683 17.5623C119.683 18.2819 119.492 18.9197 119.11 19.4751ZM99.5915 14.3136C99.7411 15.1224 99.9818 15.7072 100.314 16.0666C100.513 16.2626 100.733 16.4018 100.974 16.4835C101.214 16.5653 101.459 16.6065 101.708 16.6065C101.957 16.6065 102.202 16.5653 102.443 16.4835C102.683 16.4018 102.903 16.2626 103.102 16.0666C103.434 15.7072 103.675 15.1224 103.824 14.3136C103.973 13.5041 104.048 12.47 104.048 11.2113C104.048 9.93562 103.973 8.88903 103.824 8.0721C103.675 7.25393 103.434 6.68226 103.102 6.35524C102.903 6.15866 102.679 6.02011 102.43 5.93773C102.181 5.8566 101.94 5.81541 101.708 5.81541C101.459 5.81541 101.214 5.8566 100.974 5.93773C100.733 6.02011 100.513 6.15866 100.314 6.35524C99.9818 6.68226 99.7411 7.25393 99.5915 8.0721C99.4426 8.88903 99.3673 9.93562 99.3673 11.2113C99.3673 12.47 99.4426 13.5041 99.5915 14.3136ZM96.24 8.80711C96.5466 8.08817 96.9705 7.47906 97.5097 6.98041C98.0494 6.48177 98.6754 6.09733 99.3888 5.82773C100.103 5.5575 100.875 5.42332 101.705 5.42332C102.534 5.42332 103.311 5.5575 104.033 5.82773C104.755 6.09733 105.381 6.48177 105.912 6.98041C106.443 7.47906 106.862 8.0838 107.17 8.79525C107.477 9.50671 107.63 10.3118 107.63 11.2111C107.63 12.0935 107.477 12.8949 107.17 13.6138C106.862 14.3334 106.443 14.9425 105.912 15.4411C105.381 15.9398 104.755 16.3236 104.033 16.5938C103.311 16.8634 102.534 16.9982 101.705 16.9982C100.875 16.9982 100.099 16.8634 99.3768 16.5938C98.6545 16.3236 98.0285 15.9398 97.497 15.4411C96.966 14.9425 96.5466 14.3378 96.24 13.6263C95.9327 12.9148 95.7794 12.1098 95.7794 11.2111C95.7794 10.328 95.9327 9.52668 96.24 8.80711ZM94.4506 14.9141C94.4506 15.1763 94.4677 15.3966 94.5006 15.5763C94.5665 15.8053 94.6546 15.977 94.7623 16.0912C94.87 16.2054 94.9904 16.304 95.1228 16.3857C95.3224 16.4675 95.5625 16.5249 95.8451 16.5574V16.7777H89.6209V16.5574C89.7533 16.5411 89.8743 16.5205 89.982 16.4962C90.0897 16.4719 90.1848 16.435 90.2678 16.3857C90.4166 16.304 90.5497 16.2097 90.6663 16.1036C90.7822 15.9976 90.857 15.854 90.8906 15.6743C90.9406 15.4459 90.9691 15.2043 90.9774 14.951C90.9862 14.6976 90.99 14.383 90.99 14.0067V2.62777V1.87949C90.99 1.56058 90.9729 1.31969 90.9406 1.15618C90.8405 0.81293 90.691 0.575777 90.492 0.44472C90.3755 0.362964 90.2595 0.309917 90.1436 0.285578C90.027 0.261238 89.8781 0.240644 89.6956 0.224417V0.00349121H94.3011C94.4176 0.00349121 94.4759 0.0690202 94.4759 0.199454C94.4759 0.460946 94.4715 0.747401 94.4626 1.05757C94.455 1.36837 94.4506 1.76092 94.4506 2.23522V14.0067V14.9141ZM81.506 14.3136C81.6555 15.1224 81.8963 15.7072 82.2283 16.0666C82.4272 16.2626 82.6471 16.4018 82.8878 16.4835C83.1286 16.5653 83.3731 16.6065 83.6221 16.6065C83.8711 16.6065 84.1157 16.5653 84.3564 16.4835C84.5972 16.4018 84.8177 16.2626 85.0166 16.0666C85.348 15.7072 85.5887 15.1224 85.7389 14.3136C85.8878 13.5041 85.9625 12.47 85.9625 11.2113C85.9625 9.93562 85.8878 8.88903 85.7389 8.0721C85.5887 7.25393 85.348 6.68226 85.0166 6.35524C84.8177 6.15866 84.5934 6.02011 84.3438 5.93773C84.0954 5.8566 83.8547 5.81541 83.6221 5.81541C83.3731 5.81541 83.1286 5.8566 82.8878 5.93773C82.6471 6.02011 82.4272 6.15866 82.2283 6.35524C81.8963 6.68226 81.6555 7.25393 81.506 8.0721C81.3571 8.88903 81.2817 9.93562 81.2817 11.2113C81.2817 12.47 81.3571 13.5041 81.506 14.3136ZM78.1572 8.80711C78.4639 8.08817 78.8877 7.47906 79.4269 6.98041C79.9661 6.48177 80.5927 6.09733 81.3067 5.82773C82.0195 5.5575 82.7918 5.42332 83.6218 5.42332C84.4511 5.42332 85.2279 5.5575 85.9501 5.82773C86.6718 6.09733 87.299 6.48177 87.8293 6.98041C88.3602 7.47906 88.7796 8.0838 89.0869 8.79525C89.3936 9.50671 89.5469 10.3118 89.5469 11.2111C89.5469 12.0935 89.3936 12.8949 89.0869 13.6138C88.7796 14.3334 88.3602 14.9425 87.8293 15.4411C87.299 15.9398 86.6718 16.3236 85.9501 16.5938C85.2279 16.8634 84.4511 16.9982 83.6218 16.9982C82.7918 16.9982 82.0163 16.8634 81.294 16.5938C80.5718 16.3236 79.9458 15.9398 79.4142 15.4411C78.8827 14.9425 78.4639 14.3378 78.1572 13.6263C77.8493 12.9148 77.696 12.1098 77.696 11.2111C77.696 10.328 77.8493 9.52668 78.1572 8.80711ZM72.6507 7.93577C72.5512 7.56819 72.4099 7.25302 72.2274 6.99153C72.045 6.71381 71.8372 6.49726 71.6053 6.34186C71.3727 6.18646 71.0826 6.10907 70.7335 6.10907C70.0366 6.10907 69.4847 6.50911 69.078 7.31044C68.6712 8.11176 68.4685 9.42796 68.4685 11.259C68.4685 12.2239 68.5179 13.0246 68.6174 13.6624C68.7168 14.3002 68.8663 14.807 69.0653 15.1826C69.2649 15.559 69.5018 15.8286 69.7749 15.9921C70.0492 16.1556 70.3603 16.2374 70.7088 16.2374C71.0243 16.2374 71.3145 16.1431 71.5806 15.9553C71.846 15.7674 72.0659 15.5222 72.2401 15.2195C72.4143 14.9174 72.5512 14.5654 72.6507 14.1648C72.7508 13.7647 72.8002 13.3435 72.8002 12.9022V9.19892C72.8002 8.72462 72.7508 8.30398 72.6507 7.93577ZM71.7791 16.4218C71.2805 16.8062 70.6089 16.9978 69.7625 16.9978C69.1314 16.9978 68.5257 16.8755 67.9448 16.6302C67.3644 16.3849 66.8449 16.0248 66.3887 15.5512C65.9325 15.0769 65.567 14.4802 65.2933 13.7607C65.0189 13.0411 64.8827 12.1992 64.8827 11.235C64.8827 10.3188 65.0234 9.50191 65.306 8.78233C65.5879 8.06276 65.9617 7.45366 66.4261 6.95564C66.8911 6.45637 67.4259 6.0763 68.0316 5.81481C68.6373 5.55332 69.2645 5.42288 69.9114 5.42288C70.742 5.42288 71.3806 5.58203 71.8285 5.90093C72.2771 6.21922 72.5926 6.59179 72.7751 7.0168H72.8245V3.04387C72.8245 2.73308 72.8207 2.38546 72.8118 2.00165C72.8042 1.61721 72.7827 1.34324 72.7504 1.17973C72.7333 0.983765 72.6959 0.844594 72.6382 0.762839C72.5799 0.681083 72.5096 0.615554 72.4266 0.566876C72.1605 0.354063 71.8121 0.239855 71.3806 0.223629V0.00270266H76.1609C76.2603 -0.0135236 76.3104 0.0432682 76.3104 0.174326C76.2933 0.599328 76.273 1.19595 76.2477 1.96483C76.223 2.73308 76.2103 3.5344 76.2103 4.36818V14.1039V14.8154C76.2103 15.0606 76.2274 15.2734 76.2604 15.4532C76.3269 15.862 76.5176 16.1559 76.8331 16.3356C76.9661 16.4174 77.115 16.4711 77.281 16.4954C77.4477 16.5197 77.5965 16.5403 77.7296 16.5566V16.7769H77.2436C76.9864 16.7769 76.6918 16.7812 76.3605 16.7893C76.0278 16.7981 75.6711 16.8062 75.2891 16.8143C74.9077 16.8224 74.5548 16.8305 74.231 16.8387C73.9079 16.8468 73.6336 16.8511 73.4099 16.8511H73.0234C72.9405 16.8511 72.8993 16.8099 72.8993 16.7282V14.9133H72.8245C72.6256 15.5349 72.2771 16.0373 71.7791 16.4218ZM55.9053 14.3136C56.0542 15.1224 56.2949 15.7072 56.6269 16.0666C56.8265 16.2626 57.0457 16.4018 57.2864 16.4835C57.5272 16.5653 57.7724 16.6065 58.0214 16.6065C58.2704 16.6065 58.5149 16.5653 58.7557 16.4835C58.9964 16.4018 59.2163 16.2626 59.4152 16.0666C59.7472 15.7072 59.988 15.1224 60.1375 14.3136C60.287 13.5041 60.3618 12.47 60.3618 11.2113C60.3618 9.93562 60.287 8.88903 60.1375 8.0721C59.988 7.25393 59.7472 6.68226 59.4152 6.35524C59.2163 6.15866 58.9926 6.02011 58.743 5.93773C58.4947 5.8566 58.2539 5.81541 58.0214 5.81541C57.7724 5.81541 57.5272 5.8566 57.2864 5.93773C57.0457 6.02011 56.8265 6.15866 56.6269 6.35524C56.2949 6.68226 56.0542 7.25393 55.9053 8.0721C55.7551 8.88903 55.681 9.93562 55.681 11.2113C55.681 12.47 55.7551 13.5041 55.9053 14.3136ZM52.5565 8.80711C52.8631 8.08817 53.2864 7.47906 53.8255 6.98041C54.3653 6.48177 54.9919 6.09733 55.7053 5.82773C56.4194 5.5575 57.191 5.42332 58.021 5.42332C58.851 5.42332 59.6271 5.5575 60.3487 5.82773C61.0704 6.09733 61.697 6.48177 62.2285 6.98041C62.7595 7.47906 63.1789 8.0838 63.4862 8.79525C63.7928 9.50671 63.9461 10.3118 63.9461 11.2111C63.9461 12.0935 63.7928 12.8949 63.4862 13.6138C63.1789 14.3334 62.7595 14.9425 62.2285 15.4411C61.697 15.9398 61.0704 16.3236 60.3487 16.5938C59.6271 16.8634 58.851 16.9982 58.021 16.9982C57.191 16.9982 56.4149 16.8634 55.6933 16.5938C54.971 16.3236 54.3444 15.9398 53.8135 15.4411C53.2819 14.9425 52.8631 14.3378 52.5565 13.6263C52.2486 12.9148 52.0952 12.1098 52.0952 11.2111C52.0952 10.328 52.2486 9.52668 52.5565 8.80711ZM50.7767 14.853C50.7931 15.1557 50.8267 15.4047 50.8761 15.6006C50.9097 15.8134 50.9718 15.977 51.063 16.0912C51.1543 16.2054 51.2911 16.3121 51.4742 16.4101C51.6396 16.4756 51.8639 16.5249 52.1458 16.5574V16.7777H46.1459V16.5574C46.3784 16.5249 46.5685 16.4594 46.7187 16.3608C46.8346 16.2959 46.9347 16.2016 47.0171 16.0793C47.1001 15.9564 47.1666 15.7398 47.2166 15.429C47.2496 15.233 47.2749 14.9959 47.2914 14.7182C47.3072 14.4398 47.3161 14.1128 47.3161 13.7371V8.21895C47.3161 7.63044 47.2249 7.19732 47.0418 6.91898C46.7934 6.55951 46.4114 6.37977 45.8969 6.37977C45.449 6.37977 45.0258 6.54328 44.6272 6.8703C44.2287 7.19732 43.9297 7.70408 43.7307 8.39057C43.6148 8.75067 43.5356 9.11451 43.4944 9.4821C43.4526 9.84969 43.4317 10.2953 43.4317 10.8189V13.7371C43.4317 14.0972 43.4406 14.4111 43.457 14.6814C43.4741 14.951 43.49 15.1763 43.5065 15.3554C43.5565 15.683 43.6275 15.9158 43.7181 16.0543C43.8099 16.1935 43.9221 16.2959 44.0551 16.3608C44.2534 16.4756 44.4448 16.5411 44.6272 16.5574V16.7777H38.5773V16.5574C38.8092 16.5411 39.017 16.4918 39.2001 16.4101C39.4155 16.3283 39.5771 16.2303 39.6848 16.1161C39.7931 16.0013 39.8717 15.8134 39.9217 15.552C39.9547 15.3722 39.9794 15.1226 39.9959 14.8037C40.013 14.4854 40.0212 14.1297 40.0212 13.7371V2.62777C40.0212 2.3332 40.013 2.0636 39.9959 1.81833C39.9794 1.57307 39.9547 1.36025 39.9217 1.18052C39.8381 0.804817 39.6981 0.559551 39.4985 0.44472C39.2996 0.297435 39.017 0.224417 38.6514 0.224417V0.00349121H43.3075C43.4241 0.00349121 43.4818 0.060283 43.4818 0.175115C43.4818 0.338625 43.4773 0.640682 43.4697 1.08253C43.4615 1.52439 43.457 2.03114 43.457 2.60281V7.8757H43.5065C43.7719 7.17298 44.1875 6.61692 44.7514 6.20815C45.3825 5.68516 46.2618 5.42367 47.3902 5.42367C47.8882 5.42367 48.3539 5.49232 48.7847 5.63212C49.2168 5.77066 49.5817 6.00345 49.8802 6.33047C50.1957 6.64126 50.42 7.0051 50.5524 7.42199C50.6854 7.83888 50.7519 8.33378 50.7519 8.90544V13.8351C50.7519 14.2114 50.7602 14.5509 50.7767 14.853ZM37.5064 16.458C36.9749 16.8175 36.2526 16.9972 35.3402 16.9972C34.7257 16.9972 34.2404 16.9485 33.8837 16.8506C33.5263 16.752 33.207 16.5891 32.9251 16.3594C32.5595 16.0492 32.3276 15.6891 32.2282 15.2804C32.1281 14.8722 32.078 14.4222 32.078 13.9317V13.3189V11.9577C32.078 11.4266 32.0824 10.8462 32.0913 10.2165C32.0989 9.58683 32.1033 8.99457 32.1033 8.43851C32.1033 7.88245 32.1072 7.40066 32.116 6.99126C32.1243 6.58248 32.1281 6.3291 32.1281 6.23112C31.8791 6.2149 31.5933 6.20304 31.2696 6.1943C30.9452 6.18619 30.6924 6.17371 30.5099 6.15748V5.8392C31.5889 5.65884 32.4936 5.25443 33.2235 4.62473C33.954 3.99503 34.5844 3.07575 35.116 1.86565H35.5386V5.66695H38.1279V6.25609H35.5386L35.4891 14.5695C35.4891 14.9945 35.5842 15.3259 35.7755 15.5631C35.9662 15.7996 36.3273 15.9182 36.8583 15.9182C37.5558 15.9182 38.1032 15.6486 38.5018 15.1094L38.7007 15.2804C38.4352 15.706 38.0373 16.0985 37.5064 16.458ZM23.3887 7.83898C23.2234 8.50113 23.1232 9.28997 23.0903 10.2055H26.3519C26.6503 10.2055 26.8537 10.1443 26.9614 10.0214C27.0697 9.89908 27.1236 9.64133 27.1236 9.24941C27.1236 8.51361 27.0742 7.91262 26.9741 7.44643C26.8746 6.98086 26.734 6.6089 26.5515 6.33056C26.4013 6.16705 26.2315 6.04473 26.0402 5.96298C25.8495 5.88122 25.5967 5.84065 25.2812 5.84065C24.7661 5.84065 24.3353 6.03662 23.9868 6.42917C23.7543 6.70688 23.5547 7.17682 23.3887 7.83898ZM29.6885 14.7053C29.4231 15.1553 29.0905 15.5516 28.6926 15.8948C28.2941 16.2381 27.8246 16.5077 27.2861 16.7043C26.7463 16.9002 26.1197 16.9982 25.4056 16.9982C24.4933 16.9982 23.688 16.8759 22.9911 16.6306C22.2942 16.3854 21.6967 16.034 21.1981 15.5759C20.5842 15.0205 20.14 14.374 19.8663 13.6388C19.592 12.903 19.4552 12.1185 19.4552 11.2841C19.4552 10.4016 19.6091 9.59595 19.9164 8.8689C20.223 8.14121 20.6418 7.52399 21.1734 7.01723C21.7043 6.50985 22.3189 6.11793 23.0158 5.84021C23.7127 5.56187 24.4597 5.42332 25.2567 5.42332C26.1197 5.42332 26.8666 5.55375 27.497 5.81525C28.1281 6.07674 28.6463 6.41624 29.0531 6.83313C29.4598 7.25002 29.7627 7.71995 29.9616 8.24356C30.1612 8.76655 30.2607 9.28142 30.2607 9.78817V10.2175C30.2607 10.3729 30.2442 10.5159 30.2112 10.6463H23.0659V11.0638C23.0659 12.2246 23.1444 13.1564 23.3022 13.8597C23.4599 14.5624 23.688 15.0773 23.9871 15.4043C24.4851 15.9766 25.182 16.2624 26.0785 16.2624C26.6424 16.2624 27.1359 16.1726 27.5591 15.9928C27.9823 15.8131 28.3486 15.5759 28.6552 15.2814C28.9618 14.9874 29.2153 14.6567 29.4142 14.2885C29.6138 13.9209 29.7715 13.5402 29.8869 13.1482L30.3107 13.2706C30.1612 13.7773 29.954 14.256 29.6885 14.7053ZM19.1211 0.994766C18.9722 1.01973 18.8309 1.05593 18.6979 1.10523C18.5648 1.18698 18.4324 1.28559 18.2994 1.3998C18.1669 1.514 18.0586 1.66129 17.9756 1.84103C17.8761 2.08629 17.8102 2.41331 17.7767 2.82209C17.7431 3.23086 17.7272 3.72951 17.7272 4.31802V13.147C17.7272 13.6862 17.7431 14.1642 17.7767 14.5817C17.8102 14.9986 17.8761 15.3456 17.9756 15.6239C18.1416 15.9341 18.4159 16.1794 18.7973 16.3591C18.8803 16.3922 18.9925 16.4209 19.1338 16.4452C19.2751 16.4702 19.4201 16.4902 19.5697 16.5064V16.776H12.0752V16.5064C12.2247 16.4902 12.3704 16.4702 12.5111 16.4452C12.6524 16.4209 12.7727 16.3922 12.8722 16.3591C13.2536 16.1962 13.5191 15.951 13.6692 15.6239C13.7687 15.3456 13.839 14.9986 13.8808 14.5817C13.922 14.1642 13.9423 13.6862 13.9423 13.147V3.141H13.8181L8.98843 16.8746H7.81823L2.71421 3.33696H2.58939V13.3186C2.58939 13.9233 2.62297 14.3933 2.6895 14.7284C2.75539 15.0635 2.84726 15.3456 2.9632 15.5746C3.22866 16.0165 3.54418 16.278 3.90912 16.3591C4.04153 16.4084 4.15811 16.4415 4.25758 16.4577C4.35705 16.474 4.48186 16.4902 4.63138 16.5064V16.776H0V16.5064C0.133049 16.4902 0.249626 16.474 0.349096 16.4577C0.448566 16.4415 0.556273 16.4165 0.67285 16.3841C1.07136 16.2861 1.38625 16.024 1.61877 15.599C1.73534 15.3706 1.83418 15.0841 1.91781 14.7409C2.00081 14.3976 2.04199 13.9233 2.04199 13.3186V4.48964C2.04199 3.85183 2.01728 3.34133 1.96723 2.95689C1.91781 2.57308 1.82594 2.23358 1.69289 1.93901C1.59342 1.67752 1.46988 1.4853 1.31972 1.36298C1.1702 1.24003 1.01244 1.14642 0.846447 1.08089C0.714032 1.03159 0.577181 0.999134 0.435895 0.982908C0.294609 0.966058 0.157759 0.950456 0.0247092 0.933605V0.664001H5.85164L9.90964 11.651H10.0091L14.0678 0.664001H19.5697V0.933605C19.4201 0.950456 19.2706 0.970426 19.1211 0.994766Z" fill="#36443A"/>
</svg>
