<svg width="22" height="23" viewBox="0 0 22 23" fill="none" xmlns="http://www.w3.org/2000/svg">
<g clip-path="url(#clip0_3079_604)">
<path d="M18.5766 18.2878C17.3879 16.1338 15.4825 14.6631 13.2749 14.1329C14.3239 13.6825 15.1911 12.8642 15.7284 11.8179C16.2657 10.7716 16.4397 9.56228 16.2207 8.39646C16.0017 7.23065 15.4032 6.18071 14.5276 5.42604C13.652 4.67137 12.5535 4.25879 11.4199 4.25879C10.2863 4.25879 9.18783 4.67137 8.31222 5.42604C7.4366 6.18071 6.83817 7.23065 6.61915 8.39646C6.40013 9.56228 6.57413 10.7716 7.11141 11.8179C7.64869 12.8642 8.51591 13.6825 9.56491 14.1329C7.36021 14.6609 5.45196 16.1338 4.26326 18.2878C4.22885 18.3567 4.22118 18.4369 4.24187 18.5116C4.26255 18.5864 4.30998 18.6498 4.37425 18.6888C4.43852 18.7277 4.51466 18.7391 4.58677 18.7206C4.65887 18.7021 4.72136 18.6551 4.76119 18.5894C6.16719 16.0395 8.65828 14.5168 11.4199 14.5168C14.1816 14.5168 16.6726 16.0395 18.0786 18.5894C18.1039 18.6352 18.1402 18.6733 18.1839 18.6998C18.2276 18.7262 18.2771 18.7402 18.3276 18.7403C18.3782 18.7404 18.4279 18.7264 18.4715 18.6995C18.5375 18.6595 18.5856 18.5936 18.6053 18.5164C18.625 18.4392 18.6147 18.357 18.5766 18.2878ZM7.10261 9.38831C7.10261 8.49333 7.35581 7.61844 7.8302 6.87428C8.3046 6.13013 8.97887 5.55013 9.76775 5.20763C10.5566 4.86513 11.4247 4.77552 12.2622 4.95012C13.0997 5.12473 13.8689 5.5557 14.4727 6.18856C15.0765 6.82141 15.4877 7.62771 15.6543 8.5055C15.8209 9.38329 15.7354 10.2931 15.4086 11.12C15.0818 11.9469 14.5285 12.6536 13.8185 13.1508C13.1085 13.6481 12.2738 13.9135 11.4199 13.9135C10.2753 13.9121 9.17795 13.4349 8.36859 12.5865C7.55923 11.7382 7.10394 10.588 7.10261 9.38831Z" fill="#36443A" stroke="#36443A" stroke-width="0.5"/>
<path d="M21.5 11.0741C21.5 16.9171 16.7958 21.6481 11 21.6481C5.20417 21.6481 0.5 16.9171 0.5 11.0741C0.5 5.23101 5.20417 0.5 11 0.5C16.7958 0.5 21.5 5.23101 21.5 11.0741Z" stroke="#36443A"/>
</g>
<defs>
<clipPath id="clip0_3079_604">
<rect width="22" height="23" fill="white"/>
</clipPath>
</defs>
</svg>
