<svg width="32" height="32" viewBox="0 0 32 32" fill="none" xmlns="http://www.w3.org/2000/svg">
<path d="M27.292 12.8778C27.1904 12.5655 26.9987 12.2903 26.7409 12.0868C26.4832 11.8833 26.171 11.7606 25.8437 11.7342L19.8515 11.2508L17.5379 5.65572C17.4128 5.35085 17.1998 5.09006 16.9261 4.90653C16.6524 4.723 16.3303 4.625 16.0008 4.625C15.6712 4.625 15.3491 4.723 15.0754 4.90653C14.8017 5.09006 14.5887 5.35085 14.4636 5.65572L12.152 11.2498L6.15681 11.7342C5.82895 11.762 5.51655 11.8858 5.25877 12.0903C5.00099 12.2948 4.80929 12.5708 4.70768 12.8838C4.60607 13.1967 4.59908 13.5327 4.68758 13.8496C4.77607 14.1665 4.95613 14.4503 5.20517 14.6653L9.77549 18.609L8.38306 24.5057C8.30519 24.8261 8.32426 25.1623 8.43785 25.4718C8.55143 25.7813 8.75442 26.0501 9.02104 26.244C9.28766 26.438 9.60588 26.5483 9.93532 26.561C10.2648 26.5738 10.5906 26.4883 10.8713 26.3156L16.0003 23.159L21.1322 26.3156C21.4131 26.4863 21.7382 26.5701 22.0666 26.5564C22.3951 26.5427 22.7121 26.4321 22.9778 26.2386C23.2435 26.0451 23.446 25.7773 23.5598 25.469C23.6737 25.1606 23.6937 24.8255 23.6174 24.5057L22.2199 18.608L26.7903 14.6643C27.0413 14.4496 27.223 14.1653 27.3123 13.8472C27.4016 13.5292 27.3946 13.1918 27.292 12.8778ZM25.734 13.4334L20.7879 17.699C20.6751 17.7962 20.5912 17.9226 20.5454 18.0643C20.4995 18.2059 20.4935 18.3575 20.5279 18.5024L22.0392 24.8805C22.0431 24.8893 22.0435 24.8992 22.0402 24.9083C22.037 24.9174 22.0305 24.9249 22.0219 24.9292C22.0036 24.9435 21.9985 24.9404 21.9833 24.9292L16.4258 21.5117C16.2978 21.433 16.1505 21.3913 16.0003 21.3913C15.85 21.3913 15.7027 21.433 15.5747 21.5117L10.0172 24.9313C10.002 24.9404 9.99791 24.9435 9.97861 24.9313C9.97004 24.9269 9.96347 24.9194 9.96026 24.9103C9.95705 24.9013 9.95744 24.8913 9.96135 24.8825L11.4726 18.5044C11.507 18.3595 11.501 18.208 11.4552 18.0663C11.4093 17.9246 11.3254 17.7983 11.2126 17.701L6.2665 13.4354C6.25431 13.4253 6.24314 13.4161 6.2533 13.3846C6.26345 13.3531 6.27158 13.3572 6.28681 13.3552L12.7787 12.8311C12.9276 12.8183 13.0701 12.7647 13.1905 12.6762C13.3109 12.5877 13.4046 12.4677 13.4612 12.3294L15.9617 6.27525C15.9698 6.25798 15.9728 6.24986 15.9972 6.24986C16.0216 6.24986 16.0246 6.25798 16.0328 6.27525L18.5393 12.3294C18.5965 12.4678 18.6907 12.5876 18.8117 12.6758C18.9327 12.764 19.0757 12.817 19.2249 12.8291L25.7167 13.3531C25.732 13.3531 25.7411 13.3531 25.7503 13.3826C25.7594 13.412 25.7503 13.4232 25.734 13.4334Z" fill="#A7C194"/>
<circle cx="16" cy="16" r="15.25" stroke="#A7C194" stroke-width="1.5"/>
</svg>
