<svg xmlns="http://www.w3.org/2000/svg" width="64" height="64" viewBox="0 0 64 64" fill="none">
  <path d="M57.8012 18.9424C57.4943 17.791 56.8921 16.7412 56.0549 15.8983C55.2178 15.0553 54.1751 14.4489 53.0317 14.1399C49.9078 12.9247 19.6437 12.3293 10.8633 14.1739C9.71973 14.483 8.677 15.0896 7.83983 15.9328C7.00266 16.776 6.40051 17.8261 6.09382 18.9777C4.68308 25.2075 4.57643 38.6756 6.12892 45.0453C6.43582 46.1967 7.03806 47.2465 7.87522 48.0894C8.71238 48.9323 9.755 49.5388 10.8984 49.8478C17.0855 51.2818 46.4991 51.483 53.0668 49.8478C54.2103 49.5388 55.2529 48.9323 56.09 48.0894C56.9272 47.2465 57.5294 46.1967 57.8363 45.0453C59.3402 38.2582 59.4469 25.6248 57.8012 18.9424Z" stroke="white" stroke-width="2" stroke-linecap="round" stroke-linejoin="round"/>
  <path d="M41 32L27 24V40L41 32Z" stroke="white" stroke-width="2" stroke-linecap="round" stroke-linejoin="round"/>
</svg>
