<svg width="32" height="32" viewBox="0 0 32 32" fill="none" xmlns="http://www.w3.org/2000/svg">
<path d="M16 11.8889C15.2748 11.8889 14.5659 12.1007 13.9629 12.4975C13.3599 12.8943 12.89 13.4582 12.6124 14.1181C12.3349 14.7779 12.2623 15.504 12.4038 16.2045C12.5453 16.905 12.8945 17.5484 13.4073 18.0534C13.9201 18.5585 14.5734 18.9024 15.2847 19.0417C15.9959 19.1811 16.7332 19.1095 17.4032 18.8362C18.0732 18.5629 18.6458 18.1001 19.0487 17.5062C19.4516 16.9124 19.6667 16.2142 19.6667 15.5C19.6667 14.5423 19.2804 13.6238 18.5927 12.9466C17.9051 12.2693 16.9725 11.8889 16 11.8889ZM16 17.6667C15.5649 17.6667 15.1395 17.5396 14.7777 17.3015C14.416 17.0634 14.134 16.7251 13.9675 16.3291C13.801 15.9332 13.7574 15.4976 13.8423 15.0773C13.9272 14.657 14.1367 14.2709 14.4444 13.9679C14.752 13.6649 15.144 13.4586 15.5708 13.375C15.9976 13.2914 16.4399 13.3343 16.8419 13.4983C17.2439 13.6623 17.5875 13.94 17.8292 14.2963C18.071 14.6526 18.2 15.0715 18.2 15.5C18.2 16.0746 17.9682 16.6257 17.5556 17.0321C17.1431 17.4384 16.5835 17.6667 16 17.6667ZM26.2667 9H5.73333C5.53884 9 5.35232 9.07609 5.21479 9.21153C5.07726 9.34698 5 9.53068 5 9.72222V21.2778C5 21.4693 5.07726 21.653 5.21479 21.7885C5.35232 21.9239 5.53884 22 5.73333 22H26.2667C26.4612 22 26.6477 21.9239 26.7852 21.7885C26.9227 21.653 27 21.4693 27 21.2778V9.72222C27 9.53068 26.9227 9.34698 26.7852 9.21153C26.6477 9.07609 26.4612 9 26.2667 9ZM22.0179 20.5556H9.98208C9.73587 19.7355 9.28524 18.9891 8.67124 18.3844C8.05723 17.7797 7.29936 17.3359 6.46667 17.0934V13.9066C7.29936 13.6641 8.05723 13.2203 8.67124 12.6156C9.28524 12.0109 9.73587 11.2645 9.98208 10.4444H22.0179C22.2641 11.2645 22.7148 12.0109 23.3288 12.6156C23.9428 13.2203 24.7006 13.6641 25.5333 13.9066V17.0934C24.7006 17.3359 23.9428 17.7797 23.3288 18.3844C22.7148 18.9891 22.2641 19.7355 22.0179 20.5556ZM25.5333 12.3737C24.6537 12.0012 23.9526 11.3107 23.5744 10.4444H25.5333V12.3737ZM8.42558 10.4444C8.04736 11.3107 7.34627 12.0012 6.46667 12.3737V10.4444H8.42558ZM6.46667 18.6263C7.34627 18.9988 8.04736 19.6893 8.42558 20.5556H6.46667V18.6263ZM23.5744 20.5556C23.9526 19.6893 24.6537 18.9988 25.5333 18.6263V20.5556H23.5744Z" fill="#A7C194" stroke="#FFFBF5" stroke-width="0.3"/>
<circle cx="16" cy="16" r="15.25" stroke="#A7C194" stroke-width="1.5"/>
</svg>
