<svg width="32" height="32" viewBox="0 0 32 32" fill="none" xmlns="http://www.w3.org/2000/svg">
<circle cx="16" cy="16" r="15.25" stroke="#A7C194" stroke-width="1.5"/>
<path d="M13.2497 22.8748C13.2497 23.0571 13.1773 23.232 13.0484 23.3609C12.9194 23.4898 12.7446 23.5623 12.5622 23.5623H8.43722C8.07528 23.5621 7.71978 23.4666 7.40641 23.2855C7.09305 23.1044 6.83286 22.844 6.65199 22.5305C6.47111 22.217 6.37592 21.8614 6.37598 21.4995C6.37603 21.1375 6.47133 20.782 6.6523 20.4685L9.5991 15.3767L8.39167 15.699C8.30421 15.7224 8.213 15.7283 8.12326 15.7164C8.03352 15.7045 7.94699 15.675 7.86863 15.6297C7.71036 15.5382 7.59495 15.3875 7.54777 15.2109C7.50059 15.0342 7.52551 14.8461 7.61705 14.6878C7.70859 14.5296 7.85926 14.4141 8.03589 14.367L10.8521 13.6133C10.9393 13.5899 11.0303 13.5839 11.1198 13.5957C11.2094 13.6075 11.2957 13.6368 11.3739 13.682C11.4522 13.7272 11.5207 13.7873 11.5757 13.859C11.6306 13.9307 11.6709 14.0125 11.6943 14.0997L12.4496 16.9159C12.4735 17.0035 12.4798 17.095 12.4681 17.1851C12.4564 17.2751 12.4269 17.362 12.3815 17.4406C12.336 17.5193 12.2754 17.5881 12.2032 17.6432C12.1309 17.6982 12.0485 17.7385 11.9607 17.7615C11.9023 17.7767 11.8422 17.7845 11.7819 17.7847C11.6307 17.7846 11.4837 17.7346 11.3638 17.6424C11.2438 17.5503 11.1576 17.4212 11.1185 17.2751L10.7919 16.0591L7.84511 21.156C7.78491 21.2603 7.75315 21.3786 7.753 21.499C7.75286 21.6194 7.78433 21.7377 7.84429 21.8421C7.90424 21.9465 7.99056 22.0334 8.09462 22.0939C8.19868 22.1545 8.31682 22.1867 8.43722 22.1873H12.5622C12.7446 22.1873 12.9194 22.2597 13.0484 22.3886C13.1773 22.5176 13.2497 22.6924 13.2497 22.8748ZM25.3437 20.4685L23.3551 17.031C23.26 16.8814 23.1107 16.7743 22.9385 16.7321C22.7663 16.6899 22.5844 16.7159 22.4309 16.8046C22.2773 16.8934 22.1641 17.038 22.1146 17.2083C22.0652 17.3786 22.0835 17.5614 22.1657 17.7185L24.1543 21.156C24.2145 21.2603 24.2463 21.3786 24.2464 21.499C24.2466 21.6194 24.2151 21.7377 24.1552 21.8421C24.0952 21.9465 24.0089 22.0334 23.9048 22.0939C23.8008 22.1545 23.6826 22.1867 23.5622 22.1873H17.6592L18.5478 21.2987C18.6768 21.1698 18.7493 20.9949 18.7494 20.8126C18.7495 20.6302 18.6771 20.4553 18.5482 20.3263C18.4193 20.1973 18.2445 20.1248 18.0621 20.1247C17.8797 20.1246 17.7048 20.197 17.5758 20.3259L15.5133 22.3884C15.4494 22.4522 15.3987 22.528 15.3641 22.6115C15.3295 22.695 15.3117 22.7844 15.3117 22.8748C15.3117 22.9651 15.3295 23.0546 15.3641 23.1381C15.3987 23.2215 15.4494 23.2973 15.5133 23.3612L17.5758 25.4237C17.6397 25.4875 17.7155 25.5381 17.7989 25.5726C17.8824 25.6072 17.9718 25.6249 18.0621 25.6249C18.1524 25.6248 18.2418 25.607 18.3252 25.5724C18.4086 25.5378 18.4844 25.4871 18.5482 25.4233C18.612 25.3594 18.6626 25.2836 18.6971 25.2001C18.7317 25.1167 18.7494 25.0273 18.7494 24.937C18.7493 24.8467 18.7315 24.7573 18.6969 24.6739C18.6623 24.5905 18.6116 24.5147 18.5478 24.4509L17.6592 23.5623H23.5622C23.9242 23.5621 24.2797 23.4666 24.593 23.2855C24.9064 23.1044 25.1666 22.844 25.3475 22.5305C25.5283 22.217 25.6235 21.8614 25.6235 21.4995C25.6234 21.1375 25.5281 20.782 25.3471 20.4685H25.3437ZM15.9997 7.74978C16.1205 7.74857 16.2395 7.77983 16.3441 7.8403C16.4487 7.90077 16.5352 7.98823 16.5944 8.09353L19.5412 13.1853L18.3312 12.8605C18.1572 12.8197 17.9742 12.8482 17.8209 12.94C17.6676 13.0317 17.5561 13.1796 17.5099 13.3523C17.4638 13.5249 17.4867 13.7087 17.5737 13.8647C17.6608 14.0208 17.8052 14.1368 17.9763 14.1882L20.7933 14.9436C20.8514 14.9589 20.9112 14.9667 20.9712 14.9668C21.1224 14.9667 21.2694 14.9167 21.3894 14.8245C21.5093 14.7324 21.5955 14.6033 21.6346 14.4572L22.39 11.6393C22.416 11.5513 22.424 11.4591 22.4138 11.3679C22.4035 11.2768 22.3751 11.1886 22.3302 11.1086C22.2853 11.0286 22.2249 10.9584 22.1525 10.9021C22.0801 10.8458 21.9971 10.8046 21.9085 10.7809C21.8199 10.7571 21.7275 10.7513 21.6366 10.7639C21.5458 10.7764 21.4583 10.807 21.3795 10.8538C21.3006 10.9007 21.2319 10.9628 21.1775 11.0366C21.123 11.1104 21.0838 11.1944 21.0623 11.2835L20.7357 12.5013L17.7846 7.40603C17.6035 7.09308 17.3432 6.83327 17.0299 6.65265C16.7166 6.47203 16.3613 6.37695 15.9997 6.37695C15.6381 6.37695 15.2828 6.47203 14.9696 6.65265C14.6563 6.83327 14.396 7.09308 14.2148 7.40603L12.2245 10.8435C12.139 11.001 12.1183 11.1857 12.1669 11.3581C12.2156 11.5306 12.3296 11.6773 12.4848 11.7669C12.64 11.8566 12.824 11.8821 12.9977 11.838C13.1714 11.7939 13.321 11.6838 13.4147 11.531L15.405 8.09353C15.4643 7.98823 15.5507 7.90077 15.6554 7.8403C15.76 7.77983 15.8789 7.74857 15.9997 7.74978Z" fill="#A7C194"/>
</svg>
