<svg width="32" height="32" viewBox="0 0 32 32" fill="none" xmlns="http://www.w3.org/2000/svg">
<circle cx="16" cy="16" r="15.25" stroke="#A7C194" stroke-width="1.5"/>
<path d="M7 19.9375V22.8125C7 23.1937 7.15145 23.5594 7.42103 23.829C7.69062 24.0985 8.05625 24.25 8.4375 24.25H11.3125M19.9375 24.25H22.8125C23.1937 24.25 23.5594 24.0985 23.829 23.829C24.0985 23.5594 24.25 23.1937 24.25 22.8125V19.9375M24.25 11.3125V8.4375C24.25 8.05625 24.0985 7.69062 23.829 7.42103C23.5594 7.15145 23.1937 7 22.8125 7H19.9375M7 11.3125V8.4375C7 8.05625 7.15145 7.69062 7.42103 7.42103C7.69062 7.15145 8.05625 7 8.4375 7H11.3125M20.4167 15.625L15.625 20.4167L10.8333 15.625C10.3542 15.1458 10.1146 14.1875 10.8333 13.2292C11.5521 12.2708 12.9896 12.2708 13.7083 12.75C14.4271 13.2292 14.6667 13.7083 15.625 13.7083C16.5833 13.7083 16.8229 13.2292 17.5417 12.75C18.2604 12.2708 19.6979 12.2708 20.4167 13.2292C21.1354 14.1875 20.8958 15.1458 20.4167 15.625Z" stroke="#A7C194" stroke-width="2" stroke-linecap="round" stroke-linejoin="round"/>
</svg>
