<svg xmlns="http://www.w3.org/2000/svg" width="48" height="47" viewBox="0 0 48 47" fill="none">
  <g clip-path="url(#clip0_1307_6249)">
    <path d="M35.1996 10.9667H38.3996M14.3996 1.56665H33.5996C36.9944 1.56665 40.2501 2.88712 42.6506 5.23758C45.051 7.58803 46.3996 10.7759 46.3996 14.1V32.9C46.3996 36.224 45.051 39.4119 42.6506 41.7624C40.2501 44.1128 36.9944 45.4333 33.5996 45.4333H14.3996C11.0048 45.4333 7.74911 44.1128 5.34864 41.7624C2.94818 39.4119 1.59961 36.224 1.59961 32.9V14.1C1.59961 10.7759 2.94818 7.58803 5.34864 5.23758C7.74911 2.88712 11.0048 1.56665 14.3996 1.56665ZM23.9996 32.9C21.4535 32.9 19.0117 31.9096 17.2114 30.1468C15.411 28.3839 14.3996 25.993 14.3996 23.5C14.3996 21.0069 15.411 18.616 17.2114 16.8532C19.0117 15.0903 21.4535 14.1 23.9996 14.1C26.5457 14.1 28.9875 15.0903 30.7878 16.8532C32.5882 18.616 33.5996 21.0069 33.5996 23.5C33.5996 25.993 32.5882 28.3839 30.7878 30.1468C28.9875 31.9096 26.5457 32.9 23.9996 32.9Z" stroke="white" stroke-width="2" stroke-linecap="round"/>
  </g>
  <defs>
    <clipPath id="clip0_1307_6249">
      <rect width="48" height="47" fill="white"/>
    </clipPath>
  </defs>
</svg>
