<svg width="32" height="32" viewBox="0 0 32 32" fill="none" xmlns="http://www.w3.org/2000/svg">
<path d="M25.6946 7.06973C25.683 6.87095 25.5988 6.68336 25.458 6.54257C25.3172 6.40178 25.1296 6.31759 24.9308 6.30598C17.1989 5.85199 11.0056 8.17981 8.36498 12.547C7.44967 14.0409 6.99862 15.773 7.06905 17.5236C7.12694 19.1404 7.59819 20.7736 8.46959 22.3833L6.48811 24.3638C6.33565 24.5162 6.25 24.723 6.25 24.9386C6.25 25.1542 6.33565 25.361 6.48811 25.5135C6.64057 25.6659 6.84734 25.7516 7.06295 25.7516C7.27856 25.7516 7.48534 25.6659 7.6378 25.5135L9.61826 23.532C11.227 24.4024 12.8612 24.8736 14.477 24.9315C14.5901 24.9356 14.7028 24.9376 14.8152 24.9376C16.4521 24.942 18.0581 24.4912 19.4536 23.6356C23.8208 20.995 26.1496 14.8027 25.6946 7.06973ZM18.6157 22.2462C16.3051 23.6457 13.5701 23.6681 10.8248 22.3244L19.8263 13.3239C19.9018 13.2485 19.9617 13.1588 20.0025 13.0602C20.0434 12.9616 20.0644 12.8559 20.0644 12.7491C20.0644 12.6423 20.0434 12.5366 20.0025 12.438C19.9617 12.3394 19.9018 12.2497 19.8263 12.1743C19.7508 12.0988 19.6612 12.0389 19.5626 11.998C19.4639 11.9572 19.3582 11.9362 19.2515 11.9362C19.1447 11.9362 19.039 11.9572 18.9404 11.998C18.8417 12.0389 18.7521 12.0988 18.6766 12.1743L9.67616 21.1798C8.33655 18.4376 8.35584 15.6954 9.75436 13.3889C11.9979 9.68496 17.3309 7.65676 24.1062 7.89848C24.3489 14.6686 22.3197 20.0027 18.6157 22.2462Z" fill="#A7C194"/>
<circle cx="16" cy="16" r="15.25" stroke="#A7C194" stroke-width="1.5"/>
</svg>
