<svg width="32" height="32" viewBox="0 0 32 32" fill="none" xmlns="http://www.w3.org/2000/svg">
<path d="M22.8749 18.7498H14.4858L14.7429 18.4928L16.9369 16.2987C17.8231 16.745 18.7995 16.9829 19.7916 16.9943C20.7902 16.997 21.7702 16.7237 22.6233 16.2046C25.2177 14.634 26.6079 10.9984 26.3421 6.47902C26.3296 6.26496 26.2389 6.06293 26.0873 5.91131C25.9357 5.75969 25.7337 5.66902 25.5196 5.65652C21.0002 5.39183 17.3646 6.78089 15.794 9.37527C14.7702 11.0651 14.744 13.106 15.6988 15.0628L14.1249 16.6367L12.7894 15.3012C13.4457 13.852 13.3987 12.3481 12.6374 11.0925C11.4485 9.1248 8.72287 8.07589 5.34537 8.27386C5.13168 8.2866 4.93007 8.37722 4.7787 8.52859C4.62732 8.67997 4.5367 8.88158 4.52396 9.09527C4.3249 12.4717 5.3749 15.1973 7.34365 16.3873C8.0023 16.7895 8.75943 17.0015 9.53115 16.9998C10.2313 16.9929 10.9218 16.8366 11.5568 16.5415L12.8868 17.8748L12.0118 18.7498H7.1249C6.89284 18.7498 6.67028 18.842 6.50618 19.0061C6.34209 19.1702 6.2499 19.3927 6.2499 19.6248C6.2499 19.8569 6.34209 20.0794 6.50618 20.2435C6.67028 20.4076 6.89284 20.4998 7.1249 20.4998H8.17381L9.61865 27.0043C9.70334 27.3939 9.91924 27.7426 10.2302 27.9921C10.5412 28.2415 10.9284 28.3766 11.3271 28.3748H18.6738C19.0725 28.3766 19.4597 28.2415 19.7707 27.9921C20.0817 27.7426 20.2976 27.3939 20.3822 27.0043L21.8271 20.4998H22.8749C23.107 20.4998 23.3295 20.4076 23.4936 20.2435C23.6577 20.0794 23.7499 19.8569 23.7499 19.6248C23.7499 19.3927 23.6577 19.1702 23.4936 19.0061C23.3295 18.842 23.107 18.7498 22.8749 18.7498ZM17.2968 10.282C18.4408 8.39417 21.1512 7.32886 24.6249 7.37589C24.6697 10.8551 23.6066 13.5643 21.7188 14.704C20.4599 15.4696 18.9407 15.4193 17.4226 14.575C16.5771 13.0623 16.5312 11.5409 17.2968 10.282ZM11.0744 14.8243C10.0682 15.3635 9.07178 15.3887 8.24928 14.89C6.99146 14.1276 6.26631 12.3306 6.2499 9.9998C8.58068 10.0162 10.3788 10.7414 11.1401 11.9992C11.6388 12.8217 11.6093 13.8181 11.0744 14.8243ZM18.6738 26.6248H11.3271L9.96865 20.4998H20.0312L18.6738 26.6248Z" fill="#A7C194"/>
<circle cx="16" cy="16" r="15.25" stroke="#A7C194" stroke-width="1.5"/>
</svg>
