<svg xmlns="http://www.w3.org/2000/svg" width="57" height="58" viewBox="0 0 57 58" fill="none">
  <path d="M49.875 19.3333V38.6667C49.875 41.8714 48.6239 44.9448 46.3969 47.2109C44.1699 49.4769 41.1494 50.75 38 50.75H19C15.8506 50.75 12.8301 49.4769 10.6031 47.2109C8.37611 44.9448 7.125 41.8714 7.125 38.6667V19.3333C7.125 16.1286 8.37611 13.0552 10.6031 10.7891C12.8301 8.52306 15.8506 7.25 19 7.25H38C41.1494 7.25 44.1699 8.52306 46.3969 10.7891C48.6239 13.0552 49.875 16.1286 49.875 19.3333Z" stroke="white" stroke-width="2" stroke-linecap="round" stroke-linejoin="round"/>
  <path d="M23.75 29C22.3408 29 20.9633 29.4252 19.7916 30.2218C18.6199 31.0185 17.7066 32.1508 17.1674 33.4755C16.6281 34.8003 16.487 36.258 16.7619 37.6644C17.0368 39.0708 17.7154 40.3626 18.7119 41.3765C19.7083 42.3905 20.9779 43.081 22.36 43.3607C23.7421 43.6404 25.1747 43.4969 26.4766 42.9481C27.7785 42.3994 28.8913 41.4701 29.6742 40.2779C30.4571 39.0856 30.875 37.6839 30.875 36.25V14.5C31.6659 16.9167 34.675 21.75 40.375 21.75" stroke="white" stroke-width="2" stroke-linecap="round" stroke-linejoin="round"/>
</svg>
