<svg width="74" height="8" viewBox="0 0 74 8" fill="none" xmlns="http://www.w3.org/2000/svg">
<path d="M1.21875 3.81641C0.942608 3.81641 0.71875 4.04026 0.71875 4.31641C0.71875 4.59255 0.942608 4.81641 1.21875 4.81641V3.81641ZM73.6648 4.66996C73.8601 4.4747 73.8601 4.15811 73.6648 3.96285L70.4829 0.780872C70.2876 0.58561 69.971 0.58561 69.7758 0.780872C69.5805 0.976135 69.5805 1.29272 69.7758 1.48798L72.6042 4.31641L69.7758 7.14483C69.5805 7.3401 69.5805 7.65668 69.7758 7.85194C69.971 8.0472 70.2876 8.0472 70.4829 7.85194L73.6648 4.66996ZM1.21875 4.81641H73.3113V3.81641H1.21875V4.81641Z" fill="#36443A"/>
</svg>
