<svg width="35" height="35" viewBox="0 0 35 35" fill="none" xmlns="http://www.w3.org/2000/svg">
<path fill-rule="evenodd" clip-rule="evenodd" d="M27.6675 28.8467C24.92 31.3113 21.3576 32.672 17.6667 32.6667C9.3825 32.6667 2.66667 25.9508 2.66667 17.6667C2.66667 13.7183 4.19167 10.1267 6.68583 7.4475L9.16083 9.9225C9.318 10.0743 9.5285 10.1583 9.747 10.1564C9.9655 10.1545 10.1745 10.0669 10.329 9.91235C10.4835 9.75784 10.5712 9.54883 10.5731 9.33033C10.575 9.11184 10.491 8.90134 10.3392 8.74417L7.8875 6.2925C10.6059 3.9485 14.0772 2.66142 17.6667 2.66667C25.9508 2.66667 32.6667 9.3825 32.6667 17.6667C32.6667 21.5083 31.2217 25.0142 28.8467 27.6675L24.0183 22.84C24.2271 22.2312 24.3336 21.592 24.3333 20.9483V19.3333C24.3333 19.1525 24.2744 18.9765 24.1656 18.832C24.0567 18.6876 23.9039 18.5824 23.73 18.5325C24.1271 17.7293 24.3336 16.8452 24.3333 15.9492V14.3333C24.3333 14.1936 24.2982 14.0562 24.2313 13.9336C24.1643 13.811 24.0675 13.7073 23.95 13.6318C23.8324 13.5564 23.6977 13.5118 23.5584 13.502C23.419 13.4922 23.2795 13.5176 23.1525 13.5758L23.1025 13.5983C23.3652 12.9241 23.5 12.2069 23.5 11.4833V10.1667C23.4999 10.0317 23.4671 9.89873 23.4043 9.77926C23.3414 9.65978 23.2505 9.55735 23.1394 9.48078C23.0282 9.40421 22.9001 9.35579 22.7661 9.33969C22.6321 9.32359 22.4961 9.34028 22.37 9.38833L20.59 10.0658C20.52 10.0923 20.4506 10.1201 20.3817 10.1492C20.3505 8.65077 19.8003 7.20962 18.825 6.07167L18.3 5.4575C18.2218 5.36602 18.1246 5.29257 18.0153 5.24221C17.906 5.19185 17.787 5.16577 17.6667 5.16577C17.5463 5.16577 17.4273 5.19185 17.318 5.24221C17.2087 5.29257 17.1116 5.36602 17.0333 5.4575L16.5083 6.07083C15.5324 7.20911 14.9818 8.65092 14.9508 10.15C14.8822 10.1209 14.813 10.0932 14.7433 10.0667L12.9633 9.3875C12.8371 9.33942 12.7011 9.32273 12.567 9.33888C12.433 9.35503 12.3048 9.40352 12.1936 9.48019C12.0824 9.55685 11.9915 9.65939 11.9288 9.77898C11.866 9.89856 11.8333 10.0316 11.8333 10.1667V11.4833C11.8333 12.2217 11.9725 12.9367 12.23 13.5983L12.1808 13.5758C12.0539 13.5176 11.9143 13.4922 11.775 13.502C11.6356 13.5118 11.501 13.5564 11.3834 13.6318C11.2658 13.7073 11.1691 13.811 11.1021 13.9336C11.0351 14.0562 11 14.1936 11 14.3333V15.9492C10.9997 16.8452 11.2062 17.7293 11.6033 18.5325C11.4296 18.5825 11.2767 18.6877 11.1679 18.8322C11.0591 18.9766 11.0002 19.1525 11 19.3333V20.9492C11.0002 22.0652 11.3206 23.1577 11.9231 24.0972C12.5256 25.0366 13.3849 25.7835 14.3992 26.2492L16.8333 27.3683V29.3333H18.5V27.3675L20.9342 26.25C21.8397 25.8346 22.6235 25.1939 23.2108 24.3892L27.6675 28.8467ZM34.3333 17.6667C34.3333 26.8717 26.8717 34.3333 17.6667 34.3333C8.46167 34.3333 1 26.8717 1 17.6667C1 8.46167 8.46167 1 17.6667 1C26.8717 1 34.3333 8.46167 34.3333 17.6667ZM17.6667 7.285C18.1154 7.84705 18.4323 8.50262 18.5939 9.20341C18.7556 9.90421 18.758 10.6323 18.6008 11.3342C18.2392 11.6858 17.9258 12.0817 17.6667 12.5125C17.4073 12.0811 17.0933 11.6851 16.7325 11.3342C16.5754 10.6323 16.5777 9.90421 16.7394 9.20341C16.9011 8.50262 17.2179 7.84705 17.6667 7.285ZM16.8333 15.6242V15.5175C16.8334 14.6729 16.5769 13.8483 16.0977 13.1528C15.6185 12.4574 14.9392 11.924 14.15 11.6233L13.5 11.3758V11.4825C13.4999 12.3271 13.7565 13.1517 14.2357 13.8472C14.7149 14.5426 15.3941 15.076 16.1833 15.3767L16.8333 15.6242ZM18.5 15.6242L19.15 15.3767C19.9392 15.076 20.6185 14.5426 21.0977 13.8472C21.5769 13.1517 21.8334 12.3271 21.8333 11.4825V11.3758L21.1833 11.6233C20.3941 11.924 19.7149 12.4574 19.2357 13.1528C18.7565 13.8483 18.4999 14.6729 18.5 15.5175V15.6242ZM18.5 19.4225C18.5 18.2792 19.1667 17.24 20.205 16.7633L22.6667 15.6333V15.9492C22.6666 16.7463 22.4378 17.5267 22.0075 18.1977C21.5773 18.8687 20.9635 19.4023 20.2392 19.735L18.5 20.5333V19.4225ZM14.4058 16.4308C15.1305 16.7637 15.7444 17.2975 16.1747 17.9688C16.6049 18.6402 16.8336 19.4209 16.8333 20.2183V20.535L15.0942 19.7358C14.3698 19.4031 13.7561 18.8696 13.3258 18.1985C12.8955 17.5275 12.6668 16.7471 12.6667 15.95V15.6333L14.4058 16.4308ZM16.8333 25.5333V25.2183C16.8334 24.4211 16.6047 23.6405 16.1744 22.9693C15.7442 22.2981 15.1303 21.7644 14.4058 21.4317L12.6667 20.6333V20.9492C12.6668 21.7463 12.8955 22.5267 13.3258 23.1977C13.7561 23.8687 14.3698 24.4023 15.0942 24.735L16.8333 25.5333ZM18.5 25.5333L20.2392 24.735C20.9634 24.4023 21.5771 23.8689 22.0073 23.1981C22.4376 22.5272 22.6664 21.747 22.6667 20.95V20.6333L20.205 21.7642C19.6963 21.9978 19.2654 22.3724 18.9632 22.8436C18.661 23.3148 18.5002 23.8627 18.5 24.4225V25.5333Z" fill="#A7C194" stroke="#C9D5C8" stroke-width="0.2"/>
</svg>
