<svg width="32" height="32" viewBox="0 0 32 32" fill="none" xmlns="http://www.w3.org/2000/svg">
<g clip-path="url(#clip0_1370_3315)">
<path d="M12.4911 7.5293C11.3792 7.99097 10.369 8.66685 9.51793 9.51846C8.66546 10.3687 7.98942 11.3791 7.52866 12.4914C7.06789 13.6038 6.83148 14.7962 6.83302 16.0002C6.83302 21.063 10.9369 25.1669 15.9997 25.1669C17.2037 25.1684 18.3961 24.932 19.5085 24.4713C20.6209 24.0105 21.6312 23.3344 22.4814 22.482C23.3331 21.6309 24.009 20.6207 24.4706 19.5088" stroke="#A7C194" stroke-width="2" stroke-linecap="round" stroke-linejoin="round"/>
<path d="M16 16.0007H25.1667C25.1667 10.9379 21.0627 6.83398 16 6.83398V16.0007Z" stroke="#A7C194" stroke-width="2" stroke-linejoin="round"/>
</g>
<circle cx="16" cy="16" r="15.25" stroke="#A7C194" stroke-width="1.5"/>
<defs>
<clipPath id="clip0_1370_3315">
<rect width="22" height="22" fill="white" transform="translate(5 5)"/>
</clipPath>
</defs>
</svg>
