<svg xmlns="http://www.w3.org/2000/svg" width="48" height="47" viewBox="0 0 48 47" fill="none">
  <g clip-path="url(#clip0_1307_6251)">
    <path d="M23.9996 45.4333C21.058 45.4333 18.1452 44.866 15.4275 43.7637C12.7098 42.6615 10.2404 41.0459 8.16042 39.0092C6.08038 36.9725 4.43041 34.5546 3.30471 31.8935C2.179 29.2324 1.59961 26.3803 1.59961 23.5C1.59961 20.6197 2.179 17.7675 3.30471 15.1065C4.43041 12.4454 6.08038 10.0275 8.16042 7.99077C10.2404 5.95408 12.7098 4.33848 15.4275 3.23623C18.1452 2.13397 21.058 1.56665 23.9996 1.56665C29.9405 1.56665 35.638 3.87748 39.8388 7.99078C44.0396 12.1041 46.3996 17.6829 46.3996 23.5C46.3996 29.3171 44.0396 34.8959 39.8388 39.0092C35.638 43.1225 29.9405 45.4333 23.9996 45.4333ZM23.9996 45.4333V20.3666C23.9996 18.7046 24.6739 17.1107 25.8741 15.9354C27.0744 14.7602 28.7022 14.1 30.3996 14.1H31.9996M15.9996 26.6333H31.9996" stroke="white" stroke-width="2" stroke-linecap="round"/>
  </g>
  <defs>
    <clipPath id="clip0_1307_6251">
      <rect width="48" height="47" fill="white"/>
    </clipPath>
  </defs>
</svg>
