<svg width="32" height="32" viewBox="0 0 32 32" fill="none" xmlns="http://www.w3.org/2000/svg">
<g clip-path="url(#clip0_1370_3321)">
<path d="M16 6C21.523 6 26 10.477 26 16C26 21.523 21.523 26 16 26C10.477 26 6 21.523 6 16C6 10.477 10.477 6 16 6ZM16 8C13.8783 8 11.8434 8.84285 10.3431 10.3431C8.84285 11.8434 8 13.8783 8 16C8 18.1217 8.84285 20.1566 10.3431 21.6569C11.8434 23.1571 13.8783 24 16 24C18.1217 24 20.1566 23.1571 21.6569 21.6569C23.1571 20.1566 24 18.1217 24 16C24 13.8783 23.1571 11.8434 21.6569 10.3431C20.1566 8.84285 18.1217 8 16 8ZM16 10C16.2449 10 16.4813 10.09 16.6644 10.2527C16.8474 10.4155 16.9643 10.6397 16.993 10.883L17 11V15.586L19.707 18.293C19.8863 18.473 19.9905 18.7144 19.9982 18.9684C20.006 19.2223 19.9168 19.4697 19.7488 19.6603C19.5807 19.8508 19.3464 19.9703 19.0935 19.9944C18.8406 20.0185 18.588 19.9454 18.387 19.79L18.293 19.707L15.293 16.707C15.1376 16.5514 15.0378 16.349 15.009 16.131L15 16V11C15 10.7348 15.1054 10.4804 15.2929 10.2929C15.4804 10.1054 15.7348 10 16 10Z" fill="#A7C194"/>
</g>
<circle cx="16" cy="16" r="15.25" stroke="#A7C194" stroke-width="1.5"/>
<defs>
<clipPath id="clip0_1370_3321">
<rect width="24" height="24" fill="white" transform="translate(4 4)"/>
</clipPath>
</defs>
</svg>
