<svg width="32" height="32" viewBox="0 0 32 32" fill="none" xmlns="http://www.w3.org/2000/svg">
<path d="M16.4998 13.8124C15.4986 13.8124 14.5198 14.1093 13.6873 14.6656C12.8547 15.2219 12.2059 16.0125 11.8227 16.9376C11.4395 17.8626 11.3393 18.8805 11.5346 19.8626C11.7299 20.8446 12.2121 21.7466 12.9201 22.4546C13.6281 23.1626 14.5302 23.6448 15.5122 23.8401C16.4942 24.0355 17.5121 23.9352 18.4372 23.552C19.3622 23.1689 20.1529 22.52 20.7092 21.6875C21.2654 20.855 21.5623 19.8762 21.5623 18.8749C21.5609 17.5327 21.0271 16.2458 20.078 15.2967C19.1289 14.3476 17.8421 13.8138 16.4998 13.8124ZM16.4998 22.2499C15.8323 22.2499 15.1798 22.052 14.6248 21.6811C14.0698 21.3103 13.6372 20.7832 13.3817 20.1665C13.1263 19.5498 13.0595 18.8712 13.1897 18.2165C13.3199 17.5618 13.6413 16.9604 14.1133 16.4884C14.5854 16.0164 15.1867 15.695 15.8414 15.5648C16.4961 15.4345 17.1747 15.5014 17.7914 15.7568C18.4081 16.0123 18.9352 16.4448 19.306 16.9999C19.6769 17.5549 19.8748 18.2074 19.8748 18.8749C19.8748 19.77 19.5193 20.6285 18.8863 21.2614C18.2534 21.8943 17.3949 22.2499 16.4998 22.2499ZM25.2537 15.7805L22.1108 6.90104C21.7255 5.73012 20.9835 4.7091 19.9888 3.98105C18.9941 3.253 17.7965 2.85442 16.5639 2.84116C15.3313 2.82791 14.1255 3.20064 13.1154 3.90713C12.1052 4.61361 11.3415 5.61845 10.9311 6.78081L7.8187 15.5874C7.29107 16.984 7.10812 18.4873 7.28538 19.9696C7.46264 21.452 7.99486 22.8697 8.8369 24.1025C9.67894 25.3353 10.8059 26.3467 12.1223 27.0511C13.4386 27.7554 14.9054 28.1318 16.3982 28.1483C17.8911 28.1649 19.3658 27.821 20.6974 27.146C22.029 26.471 23.1782 25.4847 24.0473 24.2709C24.9164 23.057 25.4799 21.6514 25.6899 20.1734C25.9 18.6953 25.7503 17.1884 25.2537 15.7805ZM16.4998 26.4687C15.2703 26.4678 14.0593 26.1686 12.9709 25.5968C11.8824 25.025 10.9489 24.1976 10.2506 23.1856C9.55227 22.1736 9.10992 21.0073 8.96153 19.7868C8.81314 18.5662 8.96312 17.3279 9.39862 16.1781C9.40063 16.1716 9.40309 16.1652 9.40601 16.1591L12.5216 7.34295C12.8148 6.51195 13.3609 5.79364 14.0832 5.28883C14.8055 4.78403 15.6677 4.51808 16.5489 4.52832C17.4301 4.53856 18.2859 4.82447 18.9963 5.34592C19.7067 5.86737 20.2359 6.59818 20.5098 7.43577L20.5161 7.45475L23.6612 16.3437C24.0649 17.4892 24.1882 18.7148 24.0206 19.9178C23.8531 21.1208 23.3997 22.2661 22.6983 23.2577C21.9969 24.2493 21.0681 25.0584 19.9896 25.6171C18.9111 26.1757 17.7144 26.4678 16.4998 26.4687Z" fill="#A7C194"/>
<circle cx="16" cy="16" r="15.25" stroke="#A7C194" stroke-width="1.5"/>
</svg>
