<svg xmlns="http://www.w3.org/2000/svg" width="22" height="23" viewBox="0 0 22 23" fill="none">
  <g clip-path="url(#clip0_1909_12196)">
    <path d="M18.5766 18.2882C17.3879 16.1343 15.4825 14.6636 13.2749 14.1334C14.3239 13.6829 15.1911 12.8647 15.7284 11.8184C16.2657 10.7721 16.4397 9.56277 16.2207 8.39695C16.0017 7.23114 15.4032 6.1812 14.5276 5.42653C13.652 4.67186 12.5535 4.25928 11.4199 4.25928C10.2863 4.25928 9.18783 4.67186 8.31222 5.42653C7.4366 6.1812 6.83817 7.23114 6.61915 8.39695C6.40013 9.56277 6.57413 10.7721 7.11141 11.8184C7.64869 12.8647 8.51591 13.6829 9.56491 14.1334C7.36021 14.6613 5.45196 16.1343 4.26326 18.2882C4.22885 18.3572 4.22118 18.4374 4.24187 18.5121C4.26255 18.5869 4.30998 18.6503 4.37425 18.6893C4.43852 18.7282 4.51466 18.7396 4.58677 18.7211C4.65887 18.7026 4.72136 18.6556 4.76119 18.5899C6.16719 16.04 8.65828 14.5173 11.4199 14.5173C14.1816 14.5173 16.6726 16.04 18.0786 18.5899C18.1039 18.6357 18.1402 18.6738 18.1839 18.7003C18.2276 18.7267 18.2771 18.7407 18.3276 18.7408C18.3782 18.7409 18.4279 18.7269 18.4715 18.7C18.5375 18.66 18.5856 18.5941 18.6053 18.5169C18.625 18.4397 18.6147 18.3575 18.5766 18.2882ZM7.10261 9.3888C7.10261 8.49381 7.35581 7.61892 7.8302 6.87477C8.3046 6.13061 8.97887 5.55061 9.76775 5.20812C10.5566 4.86562 11.4247 4.77601 12.2622 4.95061C13.0997 5.12521 13.8689 5.55619 14.4727 6.18904C15.0765 6.8219 15.4877 7.6282 15.6543 8.50599C15.8209 9.38378 15.7354 10.2936 15.4086 11.1205C15.0818 11.9474 14.5285 12.6541 13.8185 13.1513C13.1085 13.6485 12.2738 13.9139 11.4199 13.9139C10.2753 13.9125 9.17795 13.4353 8.36859 12.587C7.55923 11.7387 7.10394 10.5885 7.10261 9.3888Z" fill="#36443A" stroke="#36443A" stroke-width="0.5"/>
    <path d="M21.5 11.0741C21.5 16.9171 16.7958 21.6481 11 21.6481C5.20417 21.6481 0.5 16.9171 0.5 11.0741C0.5 5.23101 5.20417 0.5 11 0.5C16.7958 0.5 21.5 5.23101 21.5 11.0741Z" stroke="#36443A"/>
  </g>
  <defs>
    <clipPath id="clip0_1909_12196">
      <rect width="22" height="23" fill="white"/>
    </clipPath>
  </defs>
</svg>
